<?xml version="1.0" standalone="no"?>
<!DOCTYPE svg PUBLIC "-//W3C//DTD SVG 1.1//EN" "http://www.w3.org/Graphics/SVG/1.1/DTD/svg11.dtd">
<svg xmlns="http://www.w3.org/2000/svg">
<metadata>Generated by Fontastic.me</metadata>
<defs>
<font id="untitled-font-3" horiz-adv-x="512">
<font-face font-family="untitled-font-3" units-per-em="512" ascent="480" descent="-32"/>
<missing-glyph horiz-adv-x="512" />

<glyph glyph-name="agents" unicode="&#97;" d="M154 276l9 0c5 0 8 2 8 7 0 2-3 7-8 7l-5 0 0 15c0 2-2 7-7 7-2 0-7-2-7-7l0-20c5-7 7-9 10-9z m-134-215l75 0c3 0 5 2 5 5 0 0 0 0 0 2 0 0-2 5-7 5l-20 0 0 46c0 3-2 5-5 5-2 0-7-2-7-7l0-46-27 0-10 2 0 44c0 44 37 56 37 59l29 12 0-3 5-14 29-98-12 0c-2 0-7-2-7-7 0 0 0 0 0-3 0-2 2-4 5-4l178 0c0 0 0 0 2 0l3 0c2 0 4 2 4 4 0 0 0 0 0 3 0 2-2 7-7 7l-19 0 0 46c0 3-3 5-8 5-2 0-7-2-7-7l0-44-29 0 0 44c0 44 36 59 36 59l30 12 0-3 31-112-12 0c-2 0-7-2-7-7 0 0 0 0 0-3 0-2 2-4 5-4l178 0c2 0 7 2 7 7l0 51c0 37-22 56-34 63-8 5-12 5-12 8l-37 14-24 17 0 10c19 10 31 27 36 49 15 2 27 15 27 29 0 8-2 15-7 20l0 39c0 48-39 87-88 87l-7 0c-42 0-81-39-81-87l0-3c-7 22-19 44-36 59-22 19-49 31-76 31-66 0-119-63-119-141 0-36 12-71 31-95 0 0 3 0 3 0 12 5 27 10 41 12 0 0 3 0 3 0l0-22-27-7-37-15c-2 0-12-5-22-14-9-10-22-27-22-56l0-49c5-3 8-5 13-5z m153 10l-36 0-25 87c3 0 5-2 7-2 3 0 8-2 10-2 8-3 15-3 22-3 7 0 12 0 20 3 7 2 14 4 22 7z m63 100c-9-10-21-27-21-56l0-44-27 0 31 114 22-9c-2 0-2-3-5-5z m86 29c0-3 0-5 2-7l25-22-25-17-19 39 17 9 0-2c0 2 0 2 0 0z m39-17l-3-5-22 22 0 22c3 0 5-3 8-3 2 0 5 0 7 0l12 0c5 0 12 0 17 3l0-20z m0-25l10-7-5-12-17 0-5 12 14 10z m-29-63l-13 44c0 0 0 0 3 0 2 0 2 0 5 2l7 5 5-12z m19-22l-10 0 10 56 15 0 9-56z m24 59l5 12 8-5c0 0 2-2 5-2 0 0 0 0 2 0 0 0 0 0 2 0l-12-44z m47 53l29-12c0 0 5-2 10-5 12-7 27-24 27-53l0-42-37 0 0 46c0 3-2 8-7 8-5 0-5-5-5-8l0-46-49 0z m-29 17l14-9-17-39-24 17 24 24c3 2 3 5 3 7z m24 86c0-30-24-54-54-54l-12 0c-2 0-2 0-5 0-27 2-46 24-46 51l0 47c2 0 5 0 7 0 5 0 12 2 20 2 17 5 39 15 56 32 0-3 2-3 2-5 5-10 15-25 32-29z m27 19c0-7-8-14-15-17l0 34c7 0 15-7 15-17z m-164 59c0 36 27 68 61 73 5 0 8 0 13 0l7 0c41 0 75-34 75-76l0-29c-2 0-4 0-7 2-24 5-32 37-32 37 0 2-2 5-4 5-3 0-5 0-8-3-31-31-92-31-92-31-3 0-5 0-5-3l0 25z m5-42l0-34c-7 3-14 7-14 17 0 10 7 17 14 17z m-12-41c5-3 10-5 15-5 2-22 17-39 36-49l0-10-27-17-36-14c0 0-3 0-5-3 0 0-2 0-2 0l-37 15-24 7 0 22c0 0 2 0 2 0 15-2 29-7 41-12 0 0 3 0 3 0 2 0 5 0 5 2 14 17 24 39 29 64z m-193-51c-2 0-4-3-4-3-17 22-27 54-27 83 0 66 41 120 92 127 5 0 10 2 15 2 24 0 46-9 66-27 24-21 39-56 39-92-3-5-3-10-3-15 0-5 0-7 3-12-3-24-12-49-27-68-10 2-19 7-29 9 12 10 19 25 19 40 15 0 27 14 27 29 0 14-12 27-27 29 3 5 0 7-2 7-42 8-61 34-61 34 0 3-3 3-5 3-2 0-2 0-5-3-24-24-61-34-61-34-2 0-5-2-5-5-14-2-26-14-26-29 0-14 12-29 26-29 3-15 10-29 20-39-7-3-17-5-25-7z m147 56l0 34c7-3 14-7 14-17 0-8-7-15-14-17z m-142 34l0-34c-9 2-14 9-14 17 0 10 5 17 14 17z m13-37l0 47c9 2 36 12 58 31 0 0 2-2 2-2 10-10 27-22 57-29l0-44c0-30-25-52-54-52l-12 0c-3 0-5 0-8 0-24 0-43 22-43 49z m31-90c3 0 5 2 5 5l0 22c3 0 5 0 7-3 3 0 5 0 10 0l12 0c5 0 13 0 17 3l0-22c0-3 3-5 5-5l25-7-3-12c-19-13-41-15-61-13-2 0-5 0-5 0-14 3-24 10-29 13l-2 12z m237 98l-5 0 0 14c0 3-3 8-7 8-3 0-8-3-8-8l0-19c0-3 3-8 8-8l12 0c2 0 7 3 7 8-2 2-5 5-7 5z"/>
<glyph glyph-name="commissions" unicode="&#98;" d="M200 466c5 0 7 2 7 7l0 17c0 5-2 7-7 7-5 0-7-2-7-7l0-17c0-5 2-7 7-7z m-7-71c-27-20-44-51-44-88 0-58 48-107 107-107 59 0 107 51 107 110 0 29-12 53-29 73 0 0 0 2 0 2l0 49c0 5-2 7-7 7-5 0-8-2-8-7l0-37c-17 13-39 20-63 20-17 0-34-5-49-12l0 36c0 5-2 8-7 8-5 0-7-3-7-8z m63 7c0 0 2 0 0 0 51 0 93-41 93-92 0-52-42-93-91-93-51 0-92 41-92 93 0 48 41 92 90 92z m73 56c5 0 7 3 7 8l0 17c0 5-2 7-7 7-5 0-7-2-7-7l0-17c-3-5 2-8 7-8z m-219-146c-5 0-8-2-8-7l0-64c0-5 3-7 8-7 5 0 7 2 7 7l0 64c2 5-2 7-7 7z m9 42c0 4-2 7-7 7-5 0-7-3-7-7l0-18c0-4 2-7 7-7 5 0 7 3 7 7z m298 31c-5 0-7-2-7-7l0-63c0-5 2-8 7-8 5 0 7 3 7 8l0 63c0 2-2 7-7 7z m7 39c0 5-2 8-7 8-5 0-7-3-7-8l0-17c0-5 2-7 7-7 5 0 7 2 7 7z m-175-119l17 0c2 0 5 0 5-3 2-2 2-2 2-5l0-7c0-5-2-7-7-7l-32 0c-5 0-7-5-7-7 0-5 2-8 7-8l17 0 0-7c0-5 3-7 7-7 5 0 8 4 8 7l0 7c12 0 24 12 24 25l0 7c0 7-2 12-7 17-5 5-10 7-17 7l-17 0c-5 0-8 3-8 8l0 7c0 5 3 7 8 7l29 0c5 0 7 3 7 8 0 4-2 7-7 7l-15 0 0 7c0 5-2 7-7 7-5 0-7-4-7-7l0-7c-13 0-25-10-25-25l0-7c0-14 10-24 25-24z m-42 0c0-4-3-8-7-8-4 0-7 4-7 8 0 4 3 7 7 7 4 0 7-3 7-7z m112 0c0-4-3-8-7-8-4 0-7 4-7 8 0 4 3 7 7 7 4 0 7-3 7-7z m171-122l-88 0c-9 0-19-7-22-17l-41 0c-5 0-7-3-7-8l-69 15c-5 0-9 0-14 0l-64-24c-7-3-14-10-17-17l-124 36c-7 3-15 0-22-5-5-5-10-12-10-19l0-17c0-8 5-15 10-20l93-58c0 0 2 0 2 0l134-29c3 0 5 0 5 0 2 0 5 0 5 0l71 17c2-3 4-3 7-3l41 0c3-10 13-17 22-17l88 0c5 0 7 3 7 7l0 154c0 2-2 5-7 5z m-161-134l-71-17c-2 0-2 0-4 0l-132 31-88 56c-2 3-2 5-2 8l0 17c0 2 2 5 2 5 3 2 5 2 7 2l130-36c5-13 14-20 26-20l61 0c5 0 8 3 8 7 0 5-3 8-8 8l-63 0c-7 0-12 5-12 12 0 5 2 10 7 10l64 24c2 0 2 0 4 0l69-15z m49-3l-32 0 0 105 32 0z m105-17l-81 0c-5 0-7 3-7 8l0 121c0 5 2 8 7 8l81 0z m-56 17l24 0c5 0 7 3 7 8 0 5-2 7-7 7l-24 0c-5 0-8-2-8-7 0-5 3-8 8-8z"/>
<glyph glyph-name="company" unicode="&#99;" d="M193 383l48 0c5 0 8 2 8 7l0 63c0 5-3 8-8 8l-48 0c-5 0-8-3-8-8l0-63c0-2 3-7 8-7z m7 49l0 14 32 0 0-49-32 0z m73-49l49 0c5 0 7 2 7 7l0 63c0 5-2 8-7 8l-49 0c-5 0-7-3-7-8l0-63c-3-2 2-7 7-7z m7 49l0 14 32 0 0-49-32 0z m-87-144l48 0c5 0 8 2 8 7l0 63c0 5-5 8-10 8l-49 0c-2 0-5-3-5-8l0-63c0-2 3-7 8-7z m7 48l0 15 32 0 0-49-32 0z m73-48l49 0c5 0 7 2 7 7l0 63c0 5-2 8-7 8l-49 0c-5 0-7-3-7-8l0-63c-3-2 2-7 7-7z m7 48l0 15 32 0 0-49-32 0z m-151 25c5 0 8 2 8 7l0 22c0 5-3 7-8 7-5 0-7-2-7-7l0-24c0-3 2-5 7-5z m-31 0c4 0 7 2 7 7l0 22c0 5-3 7-7 7-5 0-8-2-8-7l0-24c0-3 3-5 8-5z m-32 0c5 0 7 2 7 7l0 22c0 5-2 7-7 7-5 0-7-2-7-7l0-24c0-3 2-5 7-5z m63-64c5 0 8 3 8 8l0 24c0 5-3 7-8 7-5 0-7-2-7-7l0-24c0-5 2-8 7-8z m-31 0c4 0 7 3 7 8l0 24c0 5-3 7-7 7-5 0-8-2-8-7l0-24c0-5 3-8 8-8z m-32 0c5 0 7 3 7 8l0 24c0 5-2 7-7 7-5 0-7-2-7-7l0-24c0-5 2-8 7-8z m63-61c5 0 8 3 8 8l0 24c0 5-3 8-8 8-5 0-7-5-7-8l0-24c0-5 2-8 7-8z m-31 0c4 0 7 3 7 8l0 24c0 5-3 8-7 8-5 0-8-3-8-8l0-24c0-5 3-8 8-8z m-32 0c5 0 7 3 7 8l0 24c0 5-2 8-7 8-5 0-7-3-7-8l0-24c0-5 2-8 7-8z m63-63c5 0 8 3 8 7l0 25c0 5-3 7-8 7-5 0-7-2-7-7l0-25c0-2 2-7 7-7z m-31 0c4 0 7 3 7 7l0 25c0 5-3 7-7 7-5 0-8-2-8-7l0-25c0-2 3-7 8-7z m-32 0c5 0 7 3 7 7l0 25c0 5-2 7-7 7-5 0-7-2-7-7l0-25c0-2 2-7 7-7z m63-122c5 0 8 3 8 8l0 24c0 5-3 7-8 7-5 0-7-2-7-7l0-24c0-5 2-8 7-8z m-31 0c4 0 7 3 7 8l0 24c0 5-3 7-7 7-5 0-8-2-8-7l0-24c0-5 3-8 8-8z m-32 0c5 0 7 3 7 8l0 24c0 5-2 7-7 7-5 0-7-2-7-7l0-24c0-5 2-8 7-8z m63 61c5 0 8 3 8 7l0 25c0 5-3 7-8 7-5 0-7-5-7-7l0-25c0-4 2-7 7-7z m-31 0c4 0 7 3 7 7l0 25c0 5-3 7-7 7-5 0-8-2-8-7l0-25c0-4 3-7 8-7z m-32 0c5 0 7 3 7 7l0 25c0 5-2 7-7 7-5 0-7-2-7-7l0-25c0-4 2-7 7-7z m436-85c0 5-2 7-7 7l-7 0 0 390c0 5-3 8-8 8l-119 0 0 53c0 5-3 7-7 7l-193 0c-5 0-7-2-7-7l0-56-120 0c-5 0-7-2-7-7l0-390-10 0c-5 0-7-3-7-8 0-4 2-7 7-7l475 0c5 3 10 5 10 10z m-348 7l-113 0 0 380 113 0z m78 25l0-25-32 0 0 39 32 0z m0 29l-32 0 0 17 32 0z m0 56l0-25-32 0 0 42 32 0z m80-85l0-25-32 0 0 39 32 0z m0 29l-32 0 0 17 32 0z m0 56l0-25-32 0 0 42 32 0z m32-110l-17 0 0 137c0 5-3 7-8 7l-48 0c-5 0-8-2-8-7l0-137-17 0 0 137c0 5-2 7-7 7l-49 0c-5 0-7-2-7-7l0-137-15 0 0 176 17 0 0-8c0-5 3-7 8-7l48 0c5 0 8 2 8 7l0 8 17 0 0-8c0-5 2-7 7-7l49 0c5 0 7 2 7 7l0 8 17 0 0-176z m-144 173l0 49 32 0 0-49z m80 0l0 49 32 0 0-49z m64 17l-17 0 0 42c0 5-3 7-8 7l-48 0c-5 0-8-2-8-7l0-42-17 0 0 42c0 5-2 7-7 7l-49 0c-5 0-7-2-7-7l0-42-15 0 0 254 176 0z m127-190l-113 0 0 380 113 0z m-88 327c5 0 7 2 7 7l0 22c0 5-2 7-7 7-5 0-8-2-8-7l0-24c0-3 3-5 8-5z m31 0c5 0 8 2 8 7l0 22c0 5-3 7-8 7-4 0-7-2-7-7l0-24c0-3 3-5 7-5z m32 0c5 0 7 2 7 7l0 22c0 5-2 7-7 7-5 0-7-2-7-7l0-24c0-3 2-5 7-5z m-63-64c5 0 7 3 7 8l0 24c0 5-2 7-7 7-5 0-8-2-8-7l0-24c0-3 3-8 8-8z m31 0c5 0 8 3 8 8l0 24c0 5-3 7-8 7-4 0-7-2-7-7l0-24c0-3 3-8 7-8z m32 0c5 0 7 3 7 8l0 24c0 5-2 7-7 7-5 0-7-2-7-7l0-24c0-3 2-8 7-8z m-63-61c5 0 7 3 7 8l0 24c0 5-2 8-7 8-5 0-8-3-8-8l0-24c0-5 3-8 8-8z m31 0c5 0 8 3 8 8l0 24c0 5-3 8-8 8-4 0-7-3-7-8l0-24c0-5 3-8 7-8z m32 0c5 0 7 3 7 8l0 24c0 5-2 8-7 8-5 0-7-5-7-8l0-24c0-5 2-8 7-8z m-63-63c5 0 7 3 7 7l0 25c0 5-2 7-7 7-5 0-8-2-8-7l0-25c0-2 3-7 8-7z m31 0c5 0 8 3 8 7l0 25c0 5-3 7-8 7-4 0-7-2-7-7l0-25c0-2 3-7 7-7z m32 0c5 0 7 3 7 7l0 25c0 5-2 7-7 7-5 0-7-2-7-7l0-25c0-2 2-7 7-7z m-63-122c5 0 7 3 7 8l0 24c0 5-2 7-7 7-5 0-8-2-8-7l0-24c0-5 3-8 8-8z m31 0c5 0 8 3 8 8l0 24c0 5-3 7-8 7-4 0-7-2-7-7l0-24c0-5 3-8 7-8z m32 0c5 0 7 3 7 8l0 24c0 5-2 7-7 7-5 0-7-2-7-7l0-24c0-5 2-8 7-8z m-63 61c5 0 7 3 7 7l0 25c0 5-2 7-7 7-5 0-8-2-8-7l0-25c0-4 3-7 8-7z m31 0c5 0 8 3 8 7l0 25c0 5-3 7-8 7-4 0-7-2-7-7l0-25c0-4 3-7 7-7z m32 0c5 0 7 3 7 7l0 25c0 5-2 7-7 7-5 0-7-2-7-7l0-25c0-4 2-7 7-7z"/>
<glyph glyph-name="competitive-offer" unicode="&#100;" d="M383 317c0 71-59 127-127 127-71 2-129-56-129-127 0-71 58-127 127-127 73 0 129 56 129 127z m-127-112c-61 0-112 51-112 112 0 61 51 112 112 112 61 0 112-51 112-112 0-61-51-112-112-112z m22 136l-22 47-22-47-51-7 36-34-9-49 44 25 43-25-9 49 36 34z m2-63l-24 12-24-12 4 27-21 19 29 5 12 25 12-25 27-5-19-19z m166 173l0 12 10 0 0 15-10 0 0 12-17 0 0-12-10 0 0-15 10 0 0-12z m46-273l-17 0 0-12-9 0 0-15 9 0 0-12 17 0 0 12 10 0 0 15-10 0z m-280-122l0-12-12 0 0-15 12 0 0-12 15 0 0 12 12 0 0 15-12 0 0 12z m-173 261l0 15 15 0 0 14-15 0 0 15-15 0 0-15-14 0 0-14 14 0 0-15z m217 100c-56 0-100-44-100-100 0-56 44-100 100-100 56 0 100 44 100 100 0 56-46 100-100 100z m0-185c-46 0-85 39-85 85 0 46 39 85 85 85 46 0 85-39 85-85 0-46-39-85-85-85z m154-27l-3 63 42 49-42 49 5 63-63 15-34 53-59-24-59 24-34-51-63-17 5-63-42-49 42-49-5-63 34-8-105-104 66-13 12-65 147 146 4 0 147-146 12 65 66 13-105 104z m-310-112l-39 7 90 90 12-2 13-17-52-52z m17-49l-7 39 73 73 12-22 20 7z m139 132l-54-22-7 14-7 12-15 22-27 8-29 7 5 56-39 44 39 44-5 58 56 15 29 49 54-22 54 22 29-49 56-15-5-58 37-44-37-44 5-56-29-7-27-8-15-22-5-9-2-3-7-14z m139-132l-100 100 10-5 12-5 12 22 73-73z m56 56l-39-7-27 26-49 52 13 19 12 3z m-302 336l80 0c5 0 7 3 7 8 0 5-2 7-7 7l-80 0c-5 0-8-2-8-7 0-5 3-8 8-8z m0-31l161 0c5 0 7 2 7 7 0 5-2 7-7 7l-161 0c-5 0-8-2-8-7 0-5 3-7 8-7z m0-100l80 0c5 0 7 2 7 7 0 5-2 7-7 7l-80 0c-5 0-8-2-8-7 0-5 3-7 8-7z m0-34l158 0c5 0 8 2 8 7 0 5-3 7-8 7l-158 0c-5 0-8-2-8-7 0-2 3-7 8-7z m0-100l80 0c5 0 7 2 7 7 0 5-2 7-7 7l-80 0c-5 0-8-2-8-7 0-2 3-7 8-7z m158-17l-158 0c-5 0-8-3-8-8 0-5 3-7 8-7l158 0c5 0 8 2 8 7 0 5-5 8-8 8z m146-32l-41 17 0 10c12 7 20 17 24 29 15 0 27 12 27 27 0 10-5 17-10 22l0 17c0 36-29 66-65 66l-5 0c-5 0-10 0-15-3l0 39c0 5-2 8-7 8l-22 0c-5 0-7-3-7-8 0-5 2-7 7-7l15 0 0-39c-25-7-37-27-39-49l-276 0 0 88 271 0c5 0 7 2 7 7 0 5-2 8-7 8l-278 0c-5 0-8-3-8-8l0-102c0-5 3-8 8-8l283 0 0-9c0 0-3-3-3-3l-280 0c-5-2-8-5-8-9l0-105c0-5 3-8 8-8l253 0c-7-7-9-19-9-34l0-36c0-5 2-8 7-8l27 0c5 0 7 3 7 8 0 5-2 7-7 7l-20 0 0 29c0 30 25 39 25 39l39 15 21-20c3-2 3-2 5-2 3 0 5 0 5 2l20 22 39-17c0 0 24-9 24-39l0-29-134 0c-5 0-7-2-7-7 0-5 2-8 7-8l146 0c5 0 8 3 8 8l0 36c0 32-22 49-35 54z m-17 93c5 0 10-5 10-13 0-5-5-9-10-12z m-107 29c0 29 22 51 51 51l5 0c29 0 51-22 51-51l0-12c-17 2-22 24-22 24 0 2-2 5-4 5-3 0-5 0-8-3-19-26-61-26-61-26l0 12z m-2-29l0-22c-5 0-10 4-10 12 0 5 5 10 10 10z m27-76l-44-17c-3 0-5-3-8-5 0 0 0 0-2 0l-261 0 0 90 263 0c0 0 0-2 0-2 0-15 13-27 27-27 5-12 12-24 25-29z m41-5l-15-15-14 13 0 12c2 0 5 0 9 0l10 0c3 0 8 0 10 0z m-7 22l-10 0c-20 0-34 15-34 34l0 29c12 0 39 5 58 22 5-7 10-17 22-22l0-31c-2-15-17-32-36-32z m-288 288c5 0 7 2 7 7 0 5-2 7-7 7l-37 0c-4 0-7-2-7-7l0-49c0-5 3-7 7-7l52 0c4 0 7 2 7 7l0 15c0 5-3 7-7 7-5 0-8-2-8-7l0-5-36 0 0 32z m27 14c-3 3-8 3-10 0l-24-26-8 7c-2 2-7 5-9 0-3-3-3-7 0-10l12-15c0 0 2 0 5 0 2 0 5 0 5 0l29 32c5 5 5 7 0 12z m-27-146c5 0 7 3 7 7 0 5-2 8-7 8l-37 0c-4 0-7-3-7-8l0-48c0-5 3-8 7-8l52 0c4 0 7 3 7 8l0 12c0 5-3 7-7 7-5 0-8-2-8-7l0-5-36 0 0 34z m27 12c-3 3-8 3-10 0l-24-27-8 10c-2 3-7 3-9 0-3-2-3-7 0-10l12-14c2-3 2-3 5-3 2 0 5 0 5 3l29 32c5 2 5 7 0 9z m-15-166c-5 0-7-2-7-7l0-5-34 0 0 34 29 0c5 0 7 3 7 8 0 5-5 7-7 7l-37 0c-4 0-7-2-7-7l0-49c0-5 3-7 7-7l52 0c4 0 7 2 7 7l0 12c-3 5-5 7-10 7z m5 35l-24-27-8 7c-2 3-7 3-9 0-3-2-3-5 0-10l12-14c2-3 2-3 5-3 2 0 5 0 5 3l29 31c2 3 2 8 0 10-3 3-8 5-10 3z m193 295l-278 0c-5 0-8-3-8-8l0-105c0-4 3-7 8-7l324 0c5 0 7 3 7 7l0 105c0 5-2 8-7 8l-22 0c-5 0-7-3-7-8 0-5 2-7 7-7l15 0 0-90-310 0 0 90 271 0c5 0 7 2 7 7 0 5-2 8-7 8z"/>
<glyph glyph-name="deployed" unicode="&#101;" d="M334 414c0-17-14-31-32-31-17 0-31 14-31 31 0 18 14 32 31 32 18 0 32-14 32-32z m-141 47l14 0 0-39-14 0z m31 10l15 0 0-47-15 0z m54 14l15 0 0-32-15 0z m32 7l14 0 0-39-14 0z m-178-329l-115-114 10-12 102 102 32-32c5-48 46-87 95-90 2 0 2 0 5 0 27 0 51 10 71 29 19 20 31 44 31 73 0 25-9 49-27 69 3 2 3 7 3 9 0 5-3 13-5 15 5 5 5 10 5 15 0 5-3 12-5 14 5 5 5 10 5 15 0 2 0 7-3 10l42 41 39-31 56 78 5-15 14 5-9 36-37 0 0-14 15 0-49-66-39 29-39-39c-2 12-12 20-22 20l-2 0 31 53-97 0c2 5 5 10 5 15-3 24-15 36-32 36-17 0-32-12-32-29 0-5 3-10 5-14l-19 0 29-49-24-22-154 0 0-15 158 0 47 39 49-14 17-20c0-5 0-10 0-12 0-2-3-7-5-10-5-5-12-2-17 0l-15 15-44-37 5-2c-2-20-10-39-24-54l-5 0-17 7-149 0 0-14 146 0 12-5c-9-15-17-32-17-46z m185 137c5 0 7-3 7-7 0-5-2-8-7-8l-10 0c0 5-2 10-5 15l-2 2 17 0z m-29 15l-5 7-61 17-10-7-12 22 119 0-22-39z m9-59c5 2 8 7 10 12l10 0c5 0 7-2 7-7 0-5-2-7-7-7l-29 0c5 0 7 0 9 2z m-12-20l32 0c5 0 7-2 7-7 0-5-2-7-7-7l-32 0c-5 0-7 2-7 7 0 5 5 7 7 7z m0-31l32 0c5 0 7-3 7-8 0-4-2-7-7-7l-32 0c-5 0-7 3-7 7 0 5 5 8 7 8z m-83-25c20 20 30 44 30 69l22 19 4-5c0 0 3-2 3-2 0-5 2-10 5-12-5-5-5-10-5-15 0-5 2-12 5-15-5-4-5-9-5-14 0-5 2-12 5-15l-15 0 0-14-5 0c-14 0-27-13-27-27 0-15 13-27 27-27l25 0c7 0 12-5 12-12 0-8-5-12-12-12l-25 0c-7 0-12 4-12 12l0 5-10 0 0-5c0-15 12-27 27-27l5 0 0-15 15 0 0 5 5 0c14 0 26 12 26 27 0 15-12 27-26 27l-25 0c-7 0-12 5-12 12 0 7 5 12 12 12l25 0c7 0 12-5 12-12l0-5 14 0 0 5c0 15-12 27-26 27l-5 0 0 14c5-4 9-4 14-4l32 0c2 0 7 0 10 2 14-15 22-37 22-56 0-24-10-46-27-61-17-17-39-24-64-24-43 2-80 39-82 82 2 22 9 44 26 61z"/>
<glyph glyph-name="document" unicode="&#102;" d="M312 483c-2 2-7 5-10 5l-212 0c-10 0-14-8-14-15l0-434c0-7 7-15 14-15l332 0c7 0 14 8 14 15l0 312c0 5-2 7-4 10z m5-47l34-34 34-36-68 0z m90-382l-302 0 0 404 180 0 0-104c0-8 8-15 15-15l105 0 0-285z m-273 197c0-7 7-15 15-15l212 0c7 0 14 8 14 15 0 7-7 15-14 15l-210 0c-10 0-17-8-17-15z m227-46l-210 0c-7 0-14-8-14-15 0-7 7-14 14-14l212 0c8 0 15 7 15 14 0 10-7 15-17 15z m-90-59l-122 0c-8 0-15-7-15-14 0-8 7-15 15-15l122 0c7 0 14 7 14 15 0 7-5 14-14 14z"/>
<glyph glyph-name="earned" unicode="&#103;" d="M200 466c5 0 7 2 7 7l0 17c0 5-2 7-7 7-5 0-7-2-7-7l0-17c0-5 2-7 7-7z m-7-71c-27-20-44-51-44-88 0-58 48-107 107-107 59 0 107 51 107 110 0 29-12 53-29 73 0 0 0 2 0 2l0 49c0 5-2 7-7 7-5 0-8-2-8-7l0-37c-17 13-39 20-63 20-17 0-34-5-49-12l0 36c0 5-2 8-7 8-5 0-7-3-7-8z m63 7c0 0 2 0 0 0 51 0 93-41 93-92 0-52-42-93-91-93-51 0-92 41-92 93 0 48 41 92 90 92z m73 56c5 0 7 3 7 8l0 17c0 5-2 7-7 7-5 0-7-2-7-7l0-17c-3-5 2-8 7-8z m-219-146c-5 0-8-2-8-7l0-64c0-5 3-7 8-7 5 0 7 2 7 7l0 64c2 5-2 7-7 7z m9 42c0 4-2 7-7 7-5 0-7-3-7-7l0-18c0-4 2-7 7-7 5 0 7 3 7 7z m298 31c-5 0-7-2-7-7l0-63c0-5 2-8 7-8 5 0 7 3 7 8l0 63c0 2-2 7-7 7z m7 39c0 5-2 8-7 8-5 0-7-3-7-8l0-17c0-5 2-7 7-7 5 0 7 2 7 7z m-175-119l17 0c2 0 5 0 5-3 2-2 2-2 2-5l0-7c0-5-2-7-7-7l-32 0c-5 0-7-5-7-7 0-5 2-8 7-8l17 0 0-7c0-5 3-7 7-7 5 0 8 4 8 7l0 7c12 0 24 12 24 25l0 7c0 7-2 12-7 17-5 5-10 7-17 7l-17 0c-5 0-8 3-8 8l0 7c0 5 3 7 8 7l29 0c5 0 7 3 7 8 0 4-2 7-7 7l-15 0 0 7c0 5-2 7-7 7-5 0-7-4-7-7l0-7c-13 0-25-10-25-25l0-7c0-14 10-24 25-24z m-42 0c0-4-3-8-7-8-4 0-7 4-7 8 0 4 3 7 7 7 4 0 7-3 7-7z m112 0c0-4-3-8-7-8-4 0-7 4-7 8 0 4 3 7 7 7 4 0 7-3 7-7z m171-122l-88 0c-9 0-19-7-22-17l-41 0c-5 0-7-3-7-8l-69 15c-5 0-9 0-14 0l-64-24c-7-3-14-10-17-17l-124 36c-7 3-15 0-22-5-5-5-10-12-10-19l0-17c0-8 5-15 10-20l93-58c0 0 2 0 2 0l134-29c3 0 5 0 5 0 2 0 5 0 5 0l71 17c2-3 4-3 7-3l41 0c3-10 13-17 22-17l88 0c5 0 7 3 7 7l0 154c0 2-2 5-7 5z m-161-134l-71-17c-2 0-2 0-4 0l-132 31-88 56c-2 3-2 5-2 8l0 17c0 2 2 5 2 5 3 2 5 2 7 2l130-36c5-13 14-20 26-20l61 0c5 0 8 3 8 7 0 5-3 8-8 8l-63 0c-7 0-12 5-12 12 0 5 2 10 7 10l64 24c2 0 2 0 4 0l69-15z m49-3l-32 0 0 105 32 0z m105-17l-81 0c-5 0-7 3-7 8l0 121c0 5 2 8 7 8l81 0z m-56 17l24 0c5 0 7 3 7 8 0 5-2 7-7 7l-24 0c-5 0-8-2-8-7 0-5 3-8 8-8z"/>
<glyph glyph-name="earnings" unicode="&#104;" d="M497 441l0 17c0 22-17 42-41 42l-193 0c-22 0-41-17-41-42l0-17c0-9 2-17 7-24l-14 0c-22 0-42-17-42-42l0-17c0 0 0-2 0-2-90-5-161-80-161-171 0-95 78-173 173-173 54 0 103 25 134 64l137 0c22 0 41 17 41 41l0 17c0 22-17 42-41 42l-17 0c5 7 7 14 7 24l0 17c0 10-2 17-7 24l17 0c22 0 41 17 41 42l0 14c0 22-17 42-41 42l-17 0c5 7 7 15 7 24l0 15c0 10-2 17-7 24l17 0c24-2 41 17 41 39z m-304-63c0 12 9 24 24 24l193 0c12 0 24-9 24-24l0-17c0-10-7-20-17-22l0 22c0 5-3 7-7 7-5 0-8-2-8-7l0-25-17 0 0 25c0 5-2 7-7 7-5 0-7-2-7-7l0-25-17 0 0 25c0 5-3 7-8 7-5 0-7-2-7-7l0-25-17 0 0 25c0 5-3 7-7 7-5 0-8-2-8-7l0-25-17 0 0 25c0 5-2 7-7 7-5 0-10-2-10-7l0-25c-5 3-10 5-15 8l0 17c0 5-2 7-7 7-7 0-12-2-12-7l0-10c-5 0-10 3-15 3l0 7c0 5-5 7-9 7-3 0-8-2-8-7l0-3c-5 0-10 0-14 0 0 0 0 3 0 3z m-5-346c-86 0-156 70-156 156 0 85 68 153 156 153 88 0 156-70 156-156 0-85-71-153-156-153z m270 126c13 0 22-9 22-24l0-17c0-10-7-19-17-22l0 22c0 5-2 7-7 7-5 0-7-2-7-7l0-24-17 0 0 24c0 5-3 7-8 7-5 0-7-2-7-7l0-24-17 0 0 24c0 5-3 7-7 7-5 0-8-2-8-7l0-24-17 0 0 24c0 5-2 7-7 7-5 0-7-2-7-7l0-24-18 0 0 5c10 17 18 39 22 58l100 0z m-48 49c-5 0-8-2-8-7l0-24-17 0 0 24c0 5-2 7-7 7-5 0-7-2-7-7l0-24-10 0c0 4 0 7 0 12 0 19-3 36-10 53l59 0c12 0 22-9 22-24l0-17c0-10-8-20-18-22l0 22c3 5 0 7-4 7z m48 112c13 0 25-9 25-24l0-17c0-10-8-20-17-22l0 24c0 5-3 8-8 8-5 0-7-3-7-8l0-24-17 0 0 24c0 5-2 8-7 8-5 0-8-3-8-8l0-24-14 0 0 24c0 5-3 8-8 8-4 0-7-3-7-8l0-24-17 0 0 24c0 5-2 8-7 8-5 0-8-3-8-8l0-24-7 0c-2 5-5 12-10 17l0 7c0 5-2 8-7 8 0 0 0 0-2 0-10 12-20 22-32 31z m-9 122l0-24-17 0 0 24c0 5-3 8-8 8-5 0-7-3-7-8l0-24-15 0 0 24c0 5-2 8-7 8-5 0-7-3-7-8l0-24-17 0 0 24c0 5-3 8-8 8-5 0-7-3-7-8l0-24-17 0 0 24c0 5-3 8-7 8-5 0-8-3-8-8l0-24-17 0 0 24c0 5-2 8-7 8-5 0-7-3-7-8l0-24-17 0 0 24c0 5-3 8-8 8-5 0-7-3-7-8l0-22c-10 3-17 13-17 22l0 17c0 13 10 25 24 25l193 0c12 0 24-10 24-25l0-17c0-9-7-19-17-22l0 22c0 5-2 8-7 8-8 0-12-3-12-8z m-264-144c-61 0-112-51-112-112 0-63 51-112 112-112 64 0 112 51 112 112 3 61-48 112-112 112z m0-209c-53 0-97 44-97 97 0 54 44 98 97 98 54 0 98-44 98-98 0-53-44-97-98-97z m10 156c-2 0-7 0-10-3l-24-26c-3-3-3-8 0-13 2-2 7-2 12 0l10 13 0-78c0-5 2-8 7-8 5 0 7 3 7 8l0 99c3 3 3 5-2 8z m-54-61c0-4-3-7-7-7-4 0-7 3-7 7 0 4 3 7 7 7 4 0 7-3 7-7z m98 0c0-4-3-7-7-7-4 0-8 3-8 7 0 4 4 7 8 7 4 0 7-3 7-7z m-63 314c-5 0-8-2-8-7l0-7-10 0c-4 0-7-3-7-8 0-4 3-7 7-7l8 0 0-7c0-5 2-8 7-8 5 0 7 3 7 8l0 5 8 0c5 0 7 2 7 7 0 5 0 7-2 7l-10 0 0 10c0 5-3 7-7 7z m-105-58c5 0 7 2 7 7l0 20c0 5-2 7-7 7-5 0-8-2-8-7l0-20c0-5 3-7 8-7z m-8-66c0-5 3-7 8-7 5 0 7 2 7 7l0 20c0 4-2 7-7 7-5 0-8-3-8-7z m32 44c0-5 3-7 7-7l20 0c5 0 7 2 7 7 0 5-5 7-7 7l-20 0c-4 0-7-2-7-7z m-80 0c0-5 2-7 7-7l17 0c5 0 10 2 10 7 0 5-5 7-8 7l-19 0c-5 0-7-2-7-7z m73-24l12-15c2-3 5-3 5-3 2 0 5 0 5 3 2 2 2 7 0 12l-10 15c-2 2-7 2-12 0-3-3-3-8 0-12z m-34 51l-15 14c-2 3-7 3-12 0-3-2-3-7 2-9l12-15c3-2 5-2 5-2 3 0 5 0 5 2 5 2 5 7 3 10z m-13-39l-12-15c-5-2-5-7 0-12 3-3 3-3 5-3 3 0 5 0 5 3l12 15c3 2 3 7 0 12-2 2-7 2-10 0z m59 53l-12-14c-3-3-3-8 0-12 2-3 2-3 5-3 2 0 5 0 5 3l12 14c2 3 2 7 0 12-3 3-8 3-10 0z"/>
<glyph glyph-name="edit" unicode="&#105;" d="M163 236l-17-63c-2-7 0-15 5-19 5-5 10-8 15-8l5 0 63 17c2 0 7 3 10 5l222 222c7 7 7 22 0 29l-47 47c-5 5-9 7-14 7-5 0-10-2-15-5l-222-222c-2-5-5-7-5-10z m242 188l14-14-5-10-17 14z m-203-205l166 166 15-14-166-166-22-5z m88 210l-229 0c-12 0-22-7-22-19l0-349c0-12 10-22 22-22l390 0c12 0 22 10 22 22l0 266c0 12-10 22-22 22-12 0-22-10-22-22l0-247-346 0 0 308 207 0c12 0 22 9 22 22-2 12-12 19-22 19z"/>
<glyph glyph-name="homeowners" unicode="&#106;" d="M368 429c5 0 7 5 7 7 0 3-4 8-7 8l-163 0c-5 0-10-3-10-8 0-4 5-7 7-7z m-314-405l402 0c5 0 7 5 7 8l0 273 27 0c2 0 5 2 7 5 3 2 3 5 0 7l-58 122c-3 2-5 5-7 5l-39 0c-5 0-8-5-8-8 0-4 5-7 8-7l31 0 51-105-443 0 36 78 15 30 12 0 0-47c0-5 5-7 7-7l76 0c5 0 7 5 7 7l0 95c3 5 0 8-5 8l-75 0c-5 0-10-3-10-8l0-34-17 0c-5-2-7-2-10-7l-56-122c-2-2 0-5 0-7 3-3 5-5 8-5l26 0 0-273c0-5 3-8 8-8z m9 259l0 22 386 0 0-266-32 0 0 139c0 5-5 7-7 7-5 0-8-5-8-7l0-139-85 0 0 205 85 0 0-37c0-5 5-7 8-7 4 0 7 5 7 7l0 47c0 4-5 7-7 7l-103 0c-5 0-7-5-7-7l0-213-237 0z m49 188l59 0 0-81-59 0z m268-237l-46 0c-5 0-7-5-7-7l0-166c0-5 5-7 7-7l46 0c5 0 8 5 8 7l0 166c2 2-3 7-8 7z m-7-166l-29 0 0 25 29 0z m0 42l-29 0 0 24 29 0z m0 41l-29 0 0 25 29 0z m0 42l-29 0 0 24 29 0z m-119-47l-5 0 0 108c0 4-5 7-8 7l-134 0c-5 0-7-5-7-7l0-108-5 0c-5 0-7-5-7-7l0-29c0-5 5-8 7-8l15 0c5 0 7 5 7 8 0 5-5 7-7 7l-5 0 0 12 141 0 0-12-114 0c-5 0-8-5-8-7 0-5 5-8 8-8l122 0c4 0 7 5 7 8l0 29c2 2-3 7-7 7z m-88 0l-49 0 0 42 51 0 0-42z m0 59l-49 0 0 39 49 0z m66-59l-49 0 0 42 49 0z m0 59l-49 0 0 39 51 0 0-39z"/>
<glyph glyph-name="image" unicode="&#107;" d="M95 66c7-5 15-7 22-7 5 0 7 0 12 2l203 54 126 0c25 0 44 19 44 43l0 249c0 25-19 44-44 44l-319 0c-24 0-44-19-44-44l0-14-51-15c-12-3-22-10-27-20-7-9-7-22-5-34l61-231c5-10 12-20 22-27z m17 341c0 15 12 27 27 27l319 0c15 0 27-12 27-27l0-124-41 41c-8 8-17 8-25 0l-102-100-51 52c-8 7-17 7-25 0l-46-44c-2-3-2-10 0-13 2-2 10-2 12 0l44 44 51-51-34-36c-2-3-2-10 0-13 3-2 5-2 8-2 2 0 4 0 7 2l149 149 53-54c0 0 3 0 3-2l0-98c0-14-13-26-27-26l-322 0c-15 0-27 12-27 26z m-80-58c2 7 9 9 17 12l46 12 0-215c0-24 20-43 44-43l122 0-139-37c-7-2-15 0-20 2-4 5-9 10-12 18l-61 231c-2 7 0 15 3 20z m144-139l-10-10c-3-3-3-10 0-12 2-3 5-3 7-3 3 0 5 0 7 3l10 9c3 3 3 10 0 13-7 5-12 5-14 0z m17 100c24 0 43 19 43 44 0 24-19 43-43 43-25 0-44-19-44-43 0-25 19-44 44-44z m0 70c14 0 26-12 26-26 0-15-12-27-26-27-15 0-27 12-27 27 0 14 12 26 27 26z"/>
<glyph glyph-name="investments" unicode="&#108;" d="M263 358l0 15 8 0c7 0 14 7 14 15l0 17c0 7-7 14-14 14l-27 0 0 15 34 0c5 0 7 2 7 7 0 5-2 8-7 8l-12 0 0 14c0 5-3 8-8 8-4 0-9-3-9-8l0-12-8 0c-7 0-14-7-14-15l0-19c0-7 7-15 14-15l27 0 0-14-32 0c-2 0-4 0-4-3 0-2-3-2-3-5 0-5 3-7 7-7l13 0 0-15c0-4 2-7 7-7 5 0 7 5 7 7z m-192-239c7-7 12-17 12-26l0-15c0-5 2-7 7-7 0 0 3 0 3 0 2 0 5 2 5 7l0 15c0 14-8 29-18 39l-43 36c-8 8-13 15-13 25l0 170c0 15 13 30 27 30 8 0 12-3 20-8 7-2 12-12 12-19l0-130c0-2 0-4 2-4l42-42c17-17 36-36 39-39 2-2 10-2 12 3 2 2 0 7-2 9l-42 42c-10 10-10 24-2 36 7 3 14 8 24 8 7 0 17-3 22-8l58-58c8-7 10-17 10-27l0-129-129 0c-10 0-17 7-17 17l0 2c0 3-2 8-5 8 0 0-2 0-2 0-5 0-8-3-8-8l0-2c0-20 15-34 34-34l281 0c19 0 34 14 34 34l0 46c0 10 5 22 12 27l44 37c10 9 17 22 17 36l0 176c0 24-19 44-44 44-24 0-44-20-44-44l0-5c-7 5-14 7-24 7-22 0-39-19-39-39l0-63c-10 0-17-5-24-10l-44 12 19 0c22 0 39 17 39 39l0 10c0 5-2 7-7 7l-32 0c-22 0-39-17-39-39l0-9-2 0c0 0-3 0-3 0l0 46c47 5 83 44 83 92 0 47-39 86-88 88-51 3-92-39-92-90 0-46 36-85 83-90l0-44c-3 0-3 0-3 0l-2 0 0 10c0 22-17 39-39 39l-32 0c-5 0-7-5-7-10l0-10c0-22 17-39 39-39l19 0-39-14c-7 4-17 9-24 9l0 64c0 22-17 39-39 41-10 0-17-2-24-7l0 2c0 25-20 47-44 44-25 0-44-19-44-44l0-173c0-14 5-27 17-36z m297 210c0 12 10 25 25 25 2 0 4 0 7-3 7-5 14-12 14-22l0-90-17-17c0 7-2 14-7 22 0 0 0 2-2 2-5 8-13 12-22 15l0 68z m-34-88c7 8 15 10 24 8 5 0 10-3 13-5 2-3 4-5 7-8 7-12 7-26-3-36l-41-42c-2-2-2-7 0-12 2-2 7-2 12 0l3 3c5 5 24 24 39 39l41 41c3 3 3 3 3 5l0 129c0 15 12 30 26 30 17 0 30-13 30-30l0-173c0-10-5-19-13-24l-43-37c-13-10-18-24-18-39l0-46c0-10-7-17-17-17l-131 0 0 129c0 10 5 20 10 27z m-49 47c0 12 10 22 22 22l25 0 0-3c0-12-10-22-22-22l-22 0 0 3z m-105 124c0 24 13 46 30 59 12 9 29 17 46 17 41 0 76-35 76-76 0-17-5-34-17-46-15-17-35-30-59-30-41 0-76 35-76 76z m32-127l-7 0c-12 0-22 10-22 22l0 3 22 0c12 0 22-10 22-22l0-3z m39-24c3 0 5 0 7 0 3 0 3 0 5 0l52-20-52-51c-2-2-5-5-7-10-2 3-5 8-7 10l-22 22-27 27z m-153 66c0 12 9 24 21 24 3 0 5 0 10-2 10-3 15-13 15-22l0-66c-7-3-17-7-22-17-3-3-3-5-3-5-2-5-4-10-4-15l-17 15z"/>
<glyph glyph-name="investment-pool" unicode="&#109;" d="M149 436l80 0c5 0 7 3 7 8 0 5-2 7-7 7l-80 0c-5 0-8-2-8-7 0-5 3-8 8-8z m0-31l161 0c5 0 7 2 7 7 0 5-2 7-7 7l-161 0c-5 0-8-2-8-7 0-5 3-7 8-7z m0-100l80 0c5 0 7 2 7 7 0 5-2 7-7 7l-80 0c-5 0-8-2-8-7 0-5 3-7 8-7z m0-34l158 0c5 0 8 2 8 7 0 5-3 7-8 7l-158 0c-5 0-8-2-8-7 0-2 3-7 8-7z m0-100l80 0c5 0 7 2 7 7 0 5-2 7-7 7l-80 0c-5 0-8-2-8-7 0-2 3-7 8-7z m158-17l-158 0c-5 0-8-3-8-8 0-5 3-7 8-7l158 0c5 0 8 2 8 7 0 5-5 8-8 8z m146-32l-41 17 0 10c12 7 20 17 24 29 15 0 27 12 27 27 0 10-5 17-10 22l0 17c0 36-29 66-65 66l-5 0c-5 0-10 0-15-3l0 39c0 5-2 8-7 8l-22 0c-5 0-7-3-7-8 0-5 2-7 7-7l15 0 0-39c-25-7-37-27-39-49l-276 0 0 88 271 0c5 0 7 2 7 7 0 5-2 8-7 8l-278 0c-5 0-8-3-8-8l0-102c0-5 3-8 8-8l283 0 0-9c0 0-3-3-3-3l-280 0c-5-2-8-5-8-9l0-105c0-5 3-8 8-8l253 0c-7-7-9-19-9-34l0-36c0-5 2-8 7-8l27 0c5 0 7 3 7 8 0 5-2 7-7 7l-20 0 0 29c0 30 25 39 25 39l39 15 21-20c3-2 3-2 5-2 3 0 5 0 5 2l20 22 39-17c0 0 24-9 24-39l0-29-134 0c-5 0-7-2-7-7 0-5 2-8 7-8l146 0c5 0 8 3 8 8l0 36c0 32-22 49-35 54z m-17 93c5 0 10-5 10-13 0-5-5-9-10-12z m-107 29c0 29 22 51 51 51l5 0c29 0 51-22 51-51l0-12c-17 2-22 24-22 24 0 2-2 5-4 5-3 0-5 0-8-3-19-26-61-26-61-26l0 12z m-2-29l0-22c-5 0-10 4-10 12 0 5 5 10 10 10z m27-76l-44-17c-3 0-5-3-8-5 0 0 0 0-2 0l-261 0 0 90 263 0c0 0 0-2 0-2 0-15 13-27 27-27 5-12 12-24 25-29z m41-5l-15-15-14 13 0 12c2 0 5 0 9 0l10 0c3 0 8 0 10 0z m-7 22l-10 0c-20 0-34 15-34 34l0 29c12 0 39 5 58 22 5-7 10-17 22-22l0-31c-2-15-17-32-36-32z m-288 288c5 0 7 2 7 7 0 5-2 7-7 7l-37 0c-4 0-7-2-7-7l0-49c0-5 3-7 7-7l52 0c4 0 7 2 7 7l0 15c0 5-3 7-7 7-5 0-8-2-8-7l0-5-36 0 0 32z m27 14c-3 3-8 3-10 0l-24-26-8 7c-2 2-7 5-9 0-3-3-3-7 0-10l12-15c0 0 2 0 5 0 2 0 5 0 5 0l29 32c5 5 5 7 0 12z m-27-146c5 0 7 3 7 7 0 5-2 8-7 8l-37 0c-4 0-7-3-7-8l0-48c0-5 3-8 7-8l52 0c4 0 7 3 7 8l0 12c0 5-3 7-7 7-5 0-8-2-8-7l0-5-36 0 0 34z m27 12c-3 3-8 3-10 0l-24-27-8 10c-2 3-7 3-9 0-3-2-3-7 0-10l12-14c2-3 2-3 5-3 2 0 5 0 5 3l29 32c5 2 5 7 0 9z m-15-166c-5 0-7-2-7-7l0-5-34 0 0 34 29 0c5 0 7 3 7 8 0 5-5 7-7 7l-37 0c-4 0-7-2-7-7l0-49c0-5 3-7 7-7l52 0c4 0 7 2 7 7l0 12c-3 5-5 7-10 7z m5 35l-24-27-8 7c-2 3-7 3-9 0-3-2-3-5 0-10l12-14c2-3 2-3 5-3 2 0 5 0 5 3l29 31c2 3 2 8 0 10-3 3-8 5-10 3z m193 295l-278 0c-5 0-8-3-8-8l0-105c0-4 3-7 8-7l324 0c5 0 7 3 7 7l0 105c0 5-2 8-7 8l-22 0c-5 0-7-3-7-8 0-5 2-7 7-7l15 0 0-90-310 0 0 90 271 0c5 0 7 2 7 7 0 5-2 8-7 8z"/>
<glyph glyph-name="rent" unicode="&#110;" d="M305 322c-10 0-17 2-27 5-5 2-10 0-10-5-2-5 0-10 5-10 10-2 22-5 32-5 56 0 100 44 100 100 0 56-44 100-100 100-56 0-98-46-98-102 0-30 12-56 34-76 0-7 0-17 0-24 0-42 13-66 35-66 26 0 34 32 34 49 0 5-5 7-8 7-5 0-7-5-7-7 0 0 0-34-17-34-10 0-17 22-17 48 0 98 34 108 34 108 5 0 7 4 7 9 0 5-5 8-9 8-3 0-8-3-15-8 0 3 0 3 0 5 0 5 5 8 7 10 0 5 5 5 8 5 4 0 7-5 9-7 5-8 3-18-5-22-4-5-4-10-2-13 2-2 5-4 7-4 3 0 3 0 5 0 15 9 20 31 10 46-5 7-12 12-20 14-9 3-17 0-24-2-7-5-12-12-15-19-2-8 0-18 3-25-7-12-15-29-17-53-15 14-22 31-22 51 0 46 36 83 83 83 46 0 83-37 83-83 2-44-37-83-83-83z m112 27c-3 2-7 2-12 0-3-3-3-8 0-13l83-82 0-30-30 0-2 3 0 22c0 5-5 7-7 7l-10 0 0 7c0 5-5 8-7 8l-22 0-3 2 0 24c0 5-5 8-7 8l-22 0c-3 2-7 2-12 0-3-3-3-8 0-12 2-3 5-3 5-3l19 0 0-17c0-2 0-5 3-5l7-7c2-3 5-3 5-3l17 0 0-7c0-5 5-7 7-7l10 0 0-17c0-3 0-5 2-5l8-7c2-3 4-3 4-3l42 0c5 0 7 5 7 7l0 42c0 2 0 5-2 5z m-168-193c5 0 7 5 7 7 0 5-5 8-7 8l-10 0 0 48c5 0 7 5 7 8 0 5-5 7-7 7 0 5-5 7-7 7-3 0-10 3-10-2l-32 0 0 49 25 0c4 2 7 5 7 9 0 5-5 8-7 8l-25 0 0 49 5 0c5 0 7 4 7 7 0 5-5 7-7 7l-129 0c-5 0-7-5-7-7 0-5 4-7 7-7l7 0 0-49-7 0c-5 0-7-5-7-8 0-4 4-7 7-7l7 0 0-49-7 0c-5 0-7-5-7-7 0-5 4-7 7-7l7 0 0-49-7 0c-5 0-7-5-7-7 0-5 4-8 7-8l7 0 0-48-7 0c-5 0-7-5-7-8 0-5 4-7 7-7l7 0 0-51c0-5 5-8 7-8 5 0 8 5 8 8l0 41 34 0 0-41c0-5 5-8 7-8 5 0 8 5 8 8l0 41 34 0 0-41c0-5 5-8 7-8 2 0 7 5 7 8l0 41 34 0 0-41c0-5 5-8 8-8 2 0 7 5 7 8l0 41 7 0c5 0 8 5 8 8 0 4-5 7-8 7l-2 0 0 49 10 0z m-127-49l-32 0 0 49 32 0z m0 66l-32 0 0 49 32 0z m0 66l-32 0 0 49 32 0z m0 66l-32 0 0 49 32 0z m51-198l-34 0 0 49 34 0z m0 66l-34 0 0 49 34 0z m0 66l-34 0 0 49 34 0z m0 66l-34 0 0 49 34 0z m49-198l-32 0 0 49 34 0 0-49z m0 66l-32 0 0 49 34 0 0-49z m-42 217c5 0 8 5 8 7 0 5-5 8-8 8l-48 0c-5 0-10-3-10-8 0-4 5-7 10-7z m317-368l-124 0 0 34c20 5 34 20 34 42 0 0 0 107-41 107-42 0-42-107-42-107 0-20 15-37 34-42l0-34-65 0 0 190c0 5-5 7-8 7-5 0-7-4-7-7l0-190-239 0 0 368 59 0c4 0 7 5 7 7l0 25 75 0c5 0 8 5 8 7 2 7-3 10-8 10l-82 0c-5 0-8-3-8-7l0-25-58 0c-5 0-8-5-8-7l0-376-9 0c-5 0-8-4-8-7 0-5 5-7 8-7l482 0c5 0 8 5 8 7 0 3-3 5-8 5z m-158 76c0 41 12 92 24 92 12 0 25-51 25-92 0-15-13-25-25-25-12 0-24 12-24 25z"/>
<glyph glyph-name="property-vetting-guidelines" unicode="&#111;" d="M288 268c2-2 5-5 7-5 0 0 2 0 2 0 0 0 47 25 71 32 5 2 7 5 5 10-2 5-5 7-10 5-24-8-70-32-73-32-2 0-5-5-2-10z m7 90c0 0 2 0 2 0 0 0 47 25 71 32 5 3 7 5 5 10-2 5-5 7-10 5-24-8-70-32-73-32-5-2-5-7-2-10 2-2 5-5 7-5z m190 15c-5 0-7-2-7-7l0-307c0-13-10-25-25-25l-187 0 0 17c12 5 41 12 70 12 69 0 115-14 115-14 2 0 5 0 7 0 3 2 3 5 3 7l0 349c0 5-3 7-8 7 0 0-7 2-17 2-4 0-7-2-9-7 0-5 2-7 7-10 5 0 7-2 10-2l0-329c-17 5-59 12-110 12-34 0-68-12-78-15-10 5-37 15-71 15-53 0-100-10-117-15l0 337c15 2 61 14 117 14 30 0 54-9 64-12l0-309c0-3 2-5 5-8 2-2 4-2 7 0 0 0 78 47 149 71 2 0 4 5 4 7l0 322c0 3-2 5-2 7-2 3-5 3-7 0-64-24-127-63-127-63-5-2-5-7-2-10 0-5 4-7 7-5 0 0 56 35 114 59l0-305c-53-19-109-49-134-63l0 300c0 2-2 5-5 7-2 0-34 17-75 17-68 0-124-15-127-17-2 0-5-5-5-7l0-346c0-3 0-5 3-8 2 0 2-2 5-2 0 0 2 0 2 0 0 0 56 14 124 14 30 0 54-9 64-12l0-19-190 0c-13 0-25 9-25 24l0 310c0 5-2 7-7 7-3 0-7-2-7-7l0-307c0-22 17-39 39-39l392 0c22 0 39 17 39 39l0 307c2 5-2 7-5 7z m-197-58c2-3 5-5 7-5 0 0 2 0 2 0 0 0 47 24 71 31 5 3 7 5 5 10-2 5-5 7-10 5-24-7-70-32-73-32-2 0-5-5-2-9z m0-93c2-3 5-5 7-5 0 0 2 0 2 0 0 0 47 24 71 32 5 2 7 5 5 9-2 5-5 8-10 5-24-7-70-31-73-31-2-3-5-8-2-10z m-78 124c-49 12-103-2-105-5-5 0-7-5-5-9 0-3 5-5 7-5 0 0 3 0 3 0 0 0 53 14 97 2 5 0 8 3 10 5 0 7-2 12-7 12z m0-46c-49 12-105-3-108-5-2 0-4-5-2-10 0-2 5-5 7-5 0 0 3 0 3 0 0 0 53 15 97 3 5 0 8 2 10 5 0 5-2 9-7 12z m78-127c2-2 5-5 7-5 0 0 2 0 2 0 0 0 47 25 71 32 5 2 7 5 5 10-2 5-5 7-10 5-24-8-70-32-73-32-2 0-5-5-2-10z m-78 78c-49 12-105-2-108-5-4 0-7-5-4-10 0-2 4-4 7-4 0 0 2 0 2 0 0 0 54 14 98 2 5 0 7 2 10 5 2 7 0 12-5 12z m-105-97c-5 0-7-5-5-10 0-3 5-5 7-5 0 0 3 0 3 0 0 0 53 15 97 2 5 0 8 3 10 5 0 5-2 8-5 10-51 12-105-2-107-2z m105 51c-49 12-105-3-108-5-4 0-7-5-4-10 0-2 4-5 7-5 0 0 2 0 2 0 0 0 54 15 98 3 5 0 7 2 10 5 2 7 0 9-5 12z m-61 231l80 0c5 0 7 3 7 8 0 5-2 7-7 7l-80 0c-5 0-8-2-8-7 0-5 3-8 8-8z m0-31l161 0c5 0 7 2 7 7 0 5-2 7-7 7l-161 0c-5 0-8-2-8-7 0-5 3-7 8-7z m0-100l80 0c5 0 7 2 7 7 0 5-2 7-7 7l-80 0c-5 0-8-2-8-7 0-5 3-7 8-7z m0-34l158 0c5 0 8 2 8 7 0 5-3 7-8 7l-158 0c-5 0-8-2-8-7 0-2 3-7 8-7z m0-100l80 0c5 0 7 2 7 7 0 5-2 7-7 7l-80 0c-5 0-8-2-8-7 0-2 3-7 8-7z m158-17l-158 0c-5 0-8-3-8-8 0-5 3-7 8-7l158 0c5 0 8 2 8 7 0 5-5 8-8 8z m146-32l-41 17 0 10c12 7 20 17 24 29 15 0 27 12 27 27 0 10-5 17-10 22l0 17c0 36-29 66-65 66l-5 0c-5 0-10 0-15-3l0 39c0 5-2 8-7 8l-22 0c-5 0-7-3-7-8 0-5 2-7 7-7l15 0 0-39c-25-7-37-27-39-49l-276 0 0 88 271 0c5 0 7 2 7 7 0 5-2 8-7 8l-278 0c-5 0-8-3-8-8l0-102c0-5 3-8 8-8l283 0 0-9c0 0-3-3-3-3l-280 0c-5-2-8-5-8-9l0-105c0-5 3-8 8-8l253 0c-7-7-9-19-9-34l0-36c0-5 2-8 7-8l27 0c5 0 7 3 7 8 0 5-2 7-7 7l-20 0 0 29c0 30 25 39 25 39l39 15 21-20c3-2 3-2 5-2 3 0 5 0 5 2l20 22 39-17c0 0 24-9 24-39l0-29-134 0c-5 0-7-2-7-7 0-5 2-8 7-8l146 0c5 0 8 3 8 8l0 36c0 32-22 49-35 54z m-17 93c5 0 10-5 10-13 0-5-5-9-10-12z m-107 29c0 29 22 51 51 51l5 0c29 0 51-22 51-51l0-12c-17 2-22 24-22 24 0 2-2 5-4 5-3 0-5 0-8-3-19-26-61-26-61-26l0 12z m-2-29l0-22c-5 0-10 4-10 12 0 5 5 10 10 10z m27-76l-44-17c-3 0-5-3-8-5 0 0 0 0-2 0l-261 0 0 90 263 0c0 0 0-2 0-2 0-15 13-27 27-27 5-12 12-24 25-29z m41-5l-15-15-14 13 0 12c2 0 5 0 9 0l10 0c3 0 8 0 10 0z m-7 22l-10 0c-20 0-34 15-34 34l0 29c12 0 39 5 58 22 5-7 10-17 22-22l0-31c-2-15-17-32-36-32z m-288 288c5 0 7 2 7 7 0 5-2 7-7 7l-37 0c-4 0-7-2-7-7l0-49c0-5 3-7 7-7l52 0c4 0 7 2 7 7l0 15c0 5-3 7-7 7-5 0-8-2-8-7l0-5-36 0 0 32z m27 14c-3 3-8 3-10 0l-24-26-8 7c-2 2-7 5-9 0-3-3-3-7 0-10l12-15c0 0 2 0 5 0 2 0 5 0 5 0l29 32c5 5 5 7 0 12z m-27-146c5 0 7 3 7 7 0 5-2 8-7 8l-37 0c-4 0-7-3-7-8l0-48c0-5 3-8 7-8l52 0c4 0 7 3 7 8l0 12c0 5-3 7-7 7-5 0-8-2-8-7l0-5-36 0 0 34z m27 12c-3 3-8 3-10 0l-24-27-8 10c-2 3-7 3-9 0-3-2-3-7 0-10l12-14c2-3 2-3 5-3 2 0 5 0 5 3l29 32c5 2 5 7 0 9z m-15-166c-5 0-7-2-7-7l0-5-34 0 0 34 29 0c5 0 7 3 7 8 0 5-5 7-7 7l-37 0c-4 0-7-2-7-7l0-49c0-5 3-7 7-7l52 0c4 0 7 2 7 7l0 12c-3 5-5 7-10 7z m5 35l-24-27-8 7c-2 3-7 3-9 0-3-2-3-5 0-10l12-14c2-3 2-3 5-3 2 0 5 0 5 3l29 31c2 3 2 8 0 10-3 3-8 5-10 3z m193 295l-278 0c-5 0-8-3-8-8l0-105c0-4 3-7 8-7l324 0c5 0 7 3 7 7l0 105c0 5-2 8-7 8l-22 0c-5 0-7-3-7-8 0-5 2-7 7-7l15 0 0-90-310 0 0 90 271 0c5 0 7 2 7 7 0 5-2 8-7 8z"/>
<glyph glyph-name="property" unicode="&#112;" d="M256 317c-20 10-39 12-56 5-15-7-22-22-22-39 0-51 71-81 76-83 2 0 4 0 4 0 3 2 76 32 76 83 0 17-7 29-22 36-17 10-36 8-56-2z m0-102c-12 4-63 31-63 68 0 12 4 19 14 24 5 3 10 3 15 3 10 0 19-3 29-10 3-3 5-3 7 0 15 10 32 12 44 7 10-5 15-12 15-24 2-37-49-61-61-68z m-222-135l112-60c0 0 3 0 3 0l178 0c0 0 2 0 2 0l32 9c5 3 7 5 5 10-3 5-5 7-10 5l-32-10-170 0c0 0-113 59-115 59-7 2-12 12-10 22 3 7 12 12 22 9l112-56c3 0 3 0 5 0l161 39c3 0 5 5 5 8 0 4-2 7-7 7l-88 0c-12 0-22 10-22 22l0 19 88 0 122-24c0 0 0 0 2 0l56 0 0-73-56 0c0 0-2 0-2 0l-25-7c-5-3-7-5-5-10 3-5 5-8 10-5l22 7 63 0c5 0 8 3 8 8l0 90c0 5-3 7-8 7l-63 0-17 2 0 54c0 5-2 7-7 7-5 0-8-2-8-7l0-51-87 17c0 0 0 0-3 0l-97 0c-5 0-8-2-8-7l0-25c0-22 17-39 39-39l27 0-100-24-49 24 0 181 139 139 139-139 0-34c0-5 3-8 8-8 5 0 7 3 7 8l0 17 22-22c10-10 22-10 34-5 10 5 15 17 15 27 0 5-3 12-8 17l-195 195c-4 5-12 7-19 7-7 0-15-2-20-7l-129-122c-2-3-2-7 0-10 3-2 7-2 10 0l124 124c3 3 5 3 10 3 2 0 7-3 10-5l195-195c5-5 5-12 0-17-5-5-12-5-17 0l-181 180c-2 3-7 3-9 0l-181-180c-5-5-12-5-17 0-7 5-7 12-2 17l41 41c3 5 3 10 0 13-2 2-7 2-10 0l-44-42c-7-7-9-19-7-29 5-12 15-20 27-17 7 0 15 2 19 7l22 22 0-156c0 0-43 22-43 22-8 2-18 2-25 0-10-5-14-10-17-17-7-17 0-37 17-42z"/>
<glyph glyph-name="properties" unicode="&#113;" d="M115 305l-66 0c-5 0-8-5-8-8l0-34c0-5 5-7 8-7l66 0c4 0 7 5 7 7l0 34c2 5-3 8-7 8z m-42-32l-14 0 0 17 14 0z m34 0l-17 0 0 17 17 0z m8-34l-66 0c-5 0-8-5-8-7l0-35c0-4 5-7 8-7l66 0c4 0 7 5 7 7l0 35c2 4-3 7-7 7z m-42-32l-14 0 0 17 14 0z m34 0l-17 0 0 17 17 0z m8-34l-66 0c-5 0-8-5-8-7l0-34c0-5 5-8 8-8l66 0c4 0 7 5 7 8l0 34c2 5-3 7-7 7z m-42-32l-14 0 0 17 14 0z m34 0l-17 0 0 17 17 0z m239 115l66 0c5 0 7 5 7 7l0 34c0 5-5 8-7 8l-66 0c-5 0-7-5-7-8l0-34c0-2 2-7 7-7z m42 34l17 0 0-17-17 0z m-32 0l17 0 0-17-17 0z m-10 32l66 0c5 0 7 5 7 7l0 34c0 5-5 8-7 8l-66 0c-5 0-7-5-7-8l0-34c0-2 2-7 7-7z m42 34l17 0 0-17-17 0z m-32 0l17 0 0-17-17 0z m-173-134l34 0c5 0 7 5 7 7l0 34c-2 5-5 10-9 10l-32 0c-5 0-7-5-7-7l0-34c-3-5 2-10 7-10z m7 34l17 0 0-17-17 0z m59-34l34 0c5 0 7 5 7 7l0 34c0 5-5 8-7 8l-34 0c-5 0-8-5-8-8l0-34c-2-2 3-7 8-7z m7 34l17 0 0-17-17 0z m-73 34l34 0c2 0 5 3 5 7l0 35c0 4-5 7-7 7l-32 0c-5 0-7-5-7-7l0-35c-3-4 2-7 7-7z m7 32l17 0 0-17-17 0z m59-32l34 0c5 0 7 5 7 7l0 35c0 4-5 7-7 7l-34 0c-5 0-8-5-8-7l0-35c-2-4 3-7 8-7z m7 32l17 0 0-17-17 0z m-73 34l34 0c5 0 7 5 7 7l0 34c0 5-5 8-7 8l-34 0c-5 0-7-5-7-8l0-34c-3-5 2-7 7-7z m7 32l17 0 0-17-17 0z m59-32l34 0c5 0 7 5 7 7l0 34c0 5-5 8-7 8l-34 0c-5 0-8-5-8-8l0-34c-2-5 3-7 8-7z m7 32l17 0 0-17-17 0z m-73-264l34 0c5 0 7 5 7 8l0 34c0 5-5 7-7 7l-34 0c-5 0-7-5-7-7l0-34c-3-5 2-8 7-8z m7 32l17 0 0-17-17 0z m-149-49l18 0 0-17-18 0z m32 0l17 0 0-17-17 0z m34 0l17 0 0-17-17 0z m-90-100l446 0c22 0 42 20 42 42l0 148c0 5-5 8-8 8l-41 0 0 192c0 5-5 8-7 8l-125 0 0 24c0 5-5 7-7 7l-29 0-49 64c-3 5-10 5-12 0l-49-61-29 0c-5 0-8-5-8-10l0-90-48 0 0 66-20 0 0-66-56 0c-5 0-7-5-7-7l0-315c-3-5 2-10 7-10z m198 17l0 66 24 0 0-41c0-10 2-17 7-25z m273 25c0-15-13-25-25-25l-183 0c-14 0-24 13-24 25l0 83c7-5 15-8 24-8l8 0 0-24c0-5 5-7 7-7l34 0c5 0 7 5 7 7l0 24 66 0 0-24c0-5 5-7 8-7l34 0c5 0 7 5 7 7l0 24 12 0c10 0 17 3 25 8z m-183 58l0 17 17 0 0-17z m51 34l0 17 34 0 0-17z m66-34l0 17 17 0 0-17z m66 83l0-24c0-15-13-25-25-25l-58 0 0 25c0 5-5 7-8 7l-48 0c-5 0-8-5-8-7l0-25-58 0c-15 0-25 13-25 25l0 24z m-149 17l0 8c0 4 5 7 7 7l49 0c5 0 7-5 7-7l0-8z m-183 215l149 0 0-173 17 0 0 139 117 0 0-183-17 0 0 7c0 15-12 24-25 24l-48 0c-15 0-25-12-25-24l0-7-75 0c-5 0-8-5-8-8l0-90-68 0 0-17 24 0 0-66-41 0z m-132-100l115 0 0-298-115 0z m429-263l18 0 0-18-18 0z m-31 0l17 0 0-18-17 0z m-34 0l17 0 0-18-17 0z"/>
<glyph glyph-name="pledged" unicode="&#114;" d="M17 276l180-103c0 0 3 0 3 0 2 0 2 0 5 0l83 51c2 0 2 3 2 5 0 3 0 5 0 5-2 2-2 2-7 2-3 0-3 0-5 0l-78-48-166 95 103 63 173-97 0-130c0-2 2-4 5-7 0 0 2 0 2 0 2 0 2 0 5 0l58 37c3 2 3 2 3 5l0 134-171 97 103 64 165-95-73-47c-2-2-5-7-2-10 2-2 2-2 7-2 2 0 2 0 5 0l83 51c2 3 2 5 2 8 0 2-2 4-2 7l-181 102c0 0-2 0-2 0-2 0-2 0-5 0l-295-173c-2-2-2-5-2-7 0-3 0-5 2-7z m178 109l166-95-20-12c-2 0-2-2-2-5 0-2 0-5 0-5 2-2 2-2 7-2 3 0 3 0 5 0l20 12 0-117-44-27 0 122c0 2-3 5-3 7l-170 98z m302-63c-2 2-2 2-7 2-2 0-2 0-5 0l-83-51c-2-2-5-7-2-10 2-2 2-2 7-2 3 0 3 0 5 0l83 51c2 0 2 3 2 5 3 2 0 2 0 5z m-300-193c0 0 3 0 3 0 2 0 2 0 5 0l83 51c2 0 2 3 2 5 0 3 0 5 0 5-2 3-2 3-7 3-3 0-3 0-5 0l-78-49-176 100c0 0-2 0-2 0-2 0-5-3-7-3-3-2 0-7 2-9z m300 149c-2 2-2 2-5 2-2 0-2 0-4 0l-83-51c-3-2-5-7-3-10 3-2 3-2 8-2 2 0 2 0 4 0l83 51c3 0 3 3 3 5 0 0-3 3-3 5z m-480-90l180-103c0 0 3 0 3 0 2 0 2 0 5 0l83 52c2 0 2 2 2 4 0 3 0 5 0 5-2 3-2 3-7 3-3 0-3 0-5 0l-78-49-176 100c0 0-2 0-2 0-2 0-5-3-7-3 0-2 0-2 0-4 0-3 0-5 2-5z m471 46l-83-51c-3-3-5-7-3-10 3-2 3-2 8-2 2 0 2 0 4 0l83 51c3 0 3 2 3 5 0 2 0 5 0 5-3 2-3 2-5 2-5 2-7 2-7 0z m-198-136c0 2 0 4 0 4-2 3-2 3-7 3-3 0-3 0-5 0l-78-49-176 100c0 0-2 0-2 0-2 0-5-2-7-2 0-3 0-3 0-5 0-3 2-3 2-5l180-103c0 0 3 0 3 0 2 0 2 0 5 0l83 52c2 0 2 2 2 5z"/>
<glyph glyph-name="notification" unicode="&#115;" d="M407 290c0 71-49 129-114 144l0 19c0 18-15 35-35 35-17 0-34-15-34-35l0-17c-66-14-114-73-114-143l0-125-54-51 0-19 397 0 0 19-46 46z m-149-263c27 0 49 22 49 49l-95 0c0-30 20-49 46-49z"/>
<glyph glyph-name="no-transaction" unicode="&#116;" d="M124 190c10-7 22-12 34-12 35 0 61 27 61 61 0 34-24 61-58 61-34 0-61-27-61-61 0-3 0-5 0-5 0-17 10-34 24-44z m37 100c27 0 51-22 51-51 0-27-22-51-51-51-27 0-51 22-51 51 0 29 22 51 51 51z m-7-78l2-7 10 0 0 7 2 0c8 3 15 10 15 17 0 10-7 17-17 17l-10 0c-5 0-7 3-7 8 0 4 2 7 7 7l7 0c5 0 8-3 8-7l9 0c0 7-4 14-14 17l-3 0 0 7-7 0 0-10-2 0c-8-2-15-10-15-17 0-10 7-17 17-17l7 0c5 0 8-2 8-7 0-5-3-8-8-8l-7 0c-5 0-7 3-7 8l-10 0c0-8 5-15 15-15z m182 161l-2 7-10 0 0-7-2 0c-7-2-15-10-15-17 0-10 8-17 17-17l8 0c4 0 7-3 7-7 0-5-3-8-7-8l-8 0c-5 0-7 3-7 8l-10 0c0-8 5-15 15-17l2 0 0-8 10 0 0 8 2 0c8 2 15 9 15 17 0 9-7 17-17 17l-7 0c-5 0-8 2-8 7 0 5 3 7 8 7l7 0c5 0 7-2 7-7l10 0c-2 7-7 15-15 17z m-180 66c0-34 27-61 61-61 34 0 61 27 61 61 0 34-27 61-61 61-34 0-61-27-61-61z m110 0c0-27-22-49-49-49-29 0-51 22-51 49 0 27 22 51 51 51 27 0 49-22 49-51z m-56 39l0-7-3 0c-7-5-12-10-12-20 0-10 7-17 17-17l7 0c5 0 8-2 8-7 0-5-3-8-8-8l-7 0c-5 0-7 3-7 8l-10 0c0-8 5-15 15-17l2 0 0-8 10 0 0 8 2 0c8 2 15 9 15 17 0 9-7 17-17 17l-10 0c-5 0-7 2-7 7 0 5 2 7 7 7l7 0c5 0 8-2 8-7l9 0c0 7-4 15-14 17l-3 0 0 10z m290-259l0 10-27 0 0-17-29 0 0 76c0 19-17 36-37 36l-22 0 0 3c3 7 5 12 5 17 0 34-27 61-61 61-34 0-61-27-61-61 0-5 0-10 3-15l0-2-166 0c-20 0-37-17-37-37l0-39 3 7 5-7 0 37c0 14 12 27 26 27l171 0 0-3c10-19 32-32 54-32 22 0 41 13 53 32l0 3 27 0c15 0 27-13 27-27l0-76-24 17-66 25c-3 0-5 2-8 2-2 0-7 0-9-2-5-3-10-8-12-13-3-9 2-22 9-26l17-10 0-8-26 0-13 27c-2 8-9 12-17 12-7 0-12-2-14-7-3-5-5-12-3-17l5-15-24 13c-3 2-8 2-10 2-3 0-5 0-7 0-5-2-10-5-13-10-4-9 0-22 10-26l39-20 81-17 85 0 0-22-356 0 0 20-10 0 0-42c0-19 17-36 37-36l75 0 0-37-17 0 0-10 186 0 0 10-17 0 0 37 75 0c20 0 37 17 37 36l0 44 12 0 17 5 0-15 27 0 0 10-17 0 0 80z m-173 74c-27 0-51 22-51 51 0 27 21 51 51 51 29 0 51-22 51-51 0-27-22-51-51-51z m-5-271l-132 0 0 37 134 0 0-37z m112 73c0-15-12-27-27-27l-302 0c-15 0-27 12-27 27l0 10 356 0z m-156 129c2 3 5 3 7 3 5 0 8-3 8-5l9-25-19 0-5 18c-2 2 0 7 0 9z m197-68l-19-7-102 0-78 14-40 20c-4 2-7 7-4 12 0 2 2 5 4 5 0 0 3 0 3 0 2 0 2 0 5-3l27-14 75 0 27 12-39 22c-5 2-7 7-5 15 0 2 3 4 5 7 2 0 2 2 5 2 2 0 2 0 5 0l66-22 24-17 44 0 0-46z m-397 71c0 2-2 2-5 2-2 0-5-2-5-2l0-51c0-3 3-5 5-5 3 0 5 2 5 2z m-10-69c0 0 0-2 0 0l0-7c0 0 0-2 0-2 0 0 3-3 5-3 3 0 3 0 5 3 0 0 0 0 0 2l0 5c0 0 0 0 0 2-2 3-7 3-10 0z m-24 254l10 0 0-10-10 0z m-27-14l7 7 7-7-7-6z m-5-18l10 0 0-9-10 0z m6-28l7 7 6-7-6-6z m26-3l10 0 0-10-10 0z m20 4l7 7 6-7-6-7z m12 27l9 0 0-9-9 0z m-13 19l7 7 7-7-7-7z"/>
<glyph glyph-name="no-property" unicode="&#117;" d="M414 444l10 0 0-37-10 0z m37-64l37 0 0-9-37 0z m-82 41l7 6 26-25-7-7z m70-69l6 7 26-26-7-7z m-1 50l26 26 7-7-26-26z m-338-285l141-46c8-3 15-3 22-3 10 0 17 3 27 5l61 25c3 0 3 2 3 2 0 2 0 2 0 5 0 2-3 2-5 2 0 0-3 0-3 0l-61-24c-7-3-14-5-22-5-5 0-12 0-17 2l-141 47c-5 2-7 2-12 2-5 0-10 0-15-2l-5-3c-2-2-5-5-2-7 0-2 2-2 5-2 0 0 2 0 2 0l5 2c2 2 7 2 10 2 2 0 5-2 7-2z m39 159c7 0 15-3 22-5 0 0 2 0 2 0l125-49c5-3 7-5 9-10 3-5 3-10 0-12-2-5-7-10-14-10-3 0-3 0-5 0l-78 29c-3 0-5 3-7 3-3 0-8 0-10-3-7-2-12-9-15-17-2-12 5-26 17-31l91-32c4-2 9-2 14-2 5 0 10 0 15 2l105 37c2 0 4 0 7 0 7 0 15-5 19-13 3-5 3-9 0-14-2-5-4-10-9-12l-61-20c-3 0-5-5-3-7 0-3 3-3 5-3 0 0 3 0 3 0l56 22c7 3 14 10 17 17 2 8 2 17 0 25-3 7-10 14-17 17 2 0 5 2 7 5 2 2 2 7 0 9l-32 54-5 10-12 19-10 8-2 4c0 3-2 3-2 3l0 15 22-15c0 0 2 0 2 0 2 0 2 0 5 2 0 3 0 3 0 5 0 3 0 3-3 3l-39 24 0 54c0 2-2 5-4 5l-42 0c-2 0-5-3-5-5l0-20-22 15c0 0-2 0-2 0 0 0-3 0-3 0l-114-73c-3 0-3-3-3-3 0-2 0-2 0-5 0-2 3-2 5-2 0 0 3 0 3 0l22 15 0-42-25 10c0 0-2 0-2 0-8 2-17 5-27 5-17 0-32-5-46-15l-66-44c-3-2-3-2-3-5 0-2 0-2 0-5 3 0 3 0 5 0 0 0 3 0 3 0l66 44c12 8 26 13 41 13z m54-96l-8 3c-7 2-12 10-9 17 0 5 4 7 7 10 2 0 5 0 5 0 0 0 0 0 2 0l3 0z m100 54l-42 15 0 29 61 0 0-54-2-5c0 0 0 3 0 3-5 5-10 10-17 12z m65-61l-61-22c-2 0-7-2-9-2-3 0-8 0-10 2l-73 25 0 31 71-24c2 0 4-3 9-3 8 0 15 3 20 8 2-3 5-3 7-3l51 0 0-12z m32 10l-19-7 0 9 19 0z m-29 105l2 5 5-10 12-20 5-9 34-59-114 0 14 24 20 32 5 10z m-42 95l30 0 0-42-30 20z m-114-61l78 51 78-51 0-20c-3 0-3-2-3-5l-19-31-5-10-7-15 0 42c0 2-3 5-5 5l-71 0c-2 0-5-3-5-5l0-29-41 14z m161-117c2 0 2 0 2 2 0 0 3 3 3 3 0 2 0 2-3 2-2 3-5 3-7 0 0 0-3-2-3-2 0-3 0-3 3-3 2 0 2-2 5-2z m0 19c2 0 5 3 5 5l0 37c0 2-3 5-5 5-3 0-5-3-5-5l0-37c0-2 2-5 5-5z"/>
<glyph glyph-name="no-investor" unicode="&#118;" d="M405 488l12 0 0-49-12 0z m48-83l49 0 0-12-49 0z m-110 51l9 9 34-35-8-8z m93-93l9 9 34-35-9-8z m0 69l35 34 8-8-34-35z m-58-308c0 0 2-2 5-2 2 0 2 0 5 2 0 0 0 0 0 3 0 0 0 2 0 2 0 0 0 3 0 3 0 0 0 0 0 2-3 3-8 3-10 0 0 0 0 0-3-2 0 0 0-3 0-3 3 0 3 0 3-5 0 3 0 3 0 0z m5 25c2 0 5 2 5 2 0 0 0 3 0 3l0 48c0 0 0 3 0 3 0 2-3 2-5 2-3 0-5 0-5-2 0 0 0-3 0-3l0-48c0 0 0-3 0-3 0-2 2-2 5-2z m-171 189l9 9 6-7-8-8z m-73-21l24 0c0 0-2-2-5-5l-2-2 107-108 83 0-7-12-10-17-14-24-5-8-13-19c-2-5-2-10 0-15 0-2 3-2 3-2 2-3 5-3 10-3l146 0c0 0 2 0 2 0 5 0 8 3 10 8 3 5 3 9 0 14l-29 49-12 22-8 12-2 5 0 124-71 0 0-12-12 0-107 108-137 0 0-5c0-5 0-13 3-17l-10 0 0-5c0-12 5-22 15-30 0-9 2-19 7-24 0-19 14-34 34-34z m0 12c-7 0-15 3-17 7 5-2 10-2 15-2l48 0 10-7c0 0-2 0-2 0-3 0-5 0-8 0l-2 2z m219-5l49 0 0-97-7 12-3 5c0 2-2 2-4 5 0 0 0 0-3 0-2 0-5 2-5 2-2 0-2 0-5 0 0 0-2 0-2 0-3 0-3-2-5-5l-12-22z m-7-134l7 12 0 3 8 14 9 15 5 7 5-7 0-2 3-5 7-12 7-15 8-12 43-76c0 0 0 0 0-2 0 0 0 0-2 0l-146 0c0 0 0 0-3 0 0 0 0 0 0 2l20 34z m-129 229l107-107 17 0 0-97-78 0-95 95c5 5 12 7 20 7 7 0 17-2 22-7l46-47 0 49c0 15-5 29-17 39l-47 46-68 0c-14 0-24 10-27 22z m-127-22l7 0c8-7 17-12 27-12l64 0 43-44c8-7 13-19 13-31l0-25-25 25c0 0 0 0-2 2l-32 34-53 0c-13 0-25 8-27 20 5-3 7-3 12-3l63 0 20-17 7 8-22 21-68 0c-12 0-24 10-27 22z m-46-319c0-29 24-54 53-54 30 0 54 25 54 54 0 29-24 54-54 54-29 0-53-25-53-54z m53 41c22 0 42-19 42-41 0-22-20-41-42-41-22 0-41 19-41 41 0 22 17 41 41 41z m-4-70l7 0 0 7c5 3 10 5 12 7 2 3 2 5 2 8 0 5-2 7-7 9-2 0-5 3-5 3-2 0-5 0-5 2-2 0-2 0-4 3 0 0-3 2-3 2 0 3 0 3 3 3 0 0 2 0 4 0 5 0 10-3 15-5l0 10c-2 2-5 2-10 2l0 10-9 0 0-10c-3 0-5-2-5-2-3-3-3-3-5-5 0-3 0-3 0-5 0-3 0-5 2-5 3-3 5-5 10-5l5-2c2 0 2 0 5-3 2 0 2-2 2-2 0-3-2-5-5-5 0 0-2 0-5 0-2 0-7 0-9 2-3 3-5 5-8 8l0-13c5-2 8-4 13-4z m-35 153c30 0 54 25 54 54 0 29-24 54-54 54-29 0-53-25-53-54 0-29 24-54 53-54z m0 95c22 0 42-19 42-41 0-22-20-41-42-41-22 0-41 19-41 41 0 22 19 41 41 41z m-4-70l7 0 0 7c5 2 10 5 12 7 2 3 2 5 2 8 0 5-2 7-7 9-2 0-5 3-5 3-2 0-5 0-5 2-2 0-2 0-4 3 0 0-3 2-3 2 0 3 0 3 3 3 0 0 2 0 4 0 5 0 10-3 15-5l0 10c-2 2-5 2-12 4l0 10-7 0 0-10c-3 0-5-2-5-2-3-2-5-5-5-5 0-2 0-2 0-5 0-2 0-5 2-5 3-2 5-5 10-5l5-2c2 0 2 0 5-2 2 0 2-3 2-3 0-5-2-7-5-7 0 0-2 0-5 0-2 0-7 0-9 2-3 3-5 5-8 8l0-13c5-2 8-5 13-5z m124-95c29 0 53 24 53 53 0 30-24 54-53 54-29 0-54-24-54-54 0-29 25-53 54-53z m0 95c22 0 41-20 41-42 0-22-19-41-41-41-22 0-42 19-42 41 0 25 20 42 42 42z m-5-71c0 0 2 0 0 0l7 0 0 7c8 3 10 5 12 8 3 2 3 5 3 7 0 5-3 7-7 10-3 0-5 2-5 2 0 0-5 0-5 3-3 0-3 0-5 2 0 0-2 2-2 2 0 3 0 3 2 3 0 0 2 0 5 0 5 0 10-3 14-5l0 10c-2 2-4 2-9 2l0 12-10 0 0-9c-2 0-5-3-5-3-2-2-2-2-5-5 0-2 0-2 0-5 0-2 0-4 3-4 2-3 5-5 9-5l5-3c3 0 3 0 5-2 3 0 3-3 3-3 0-2-3-4-5-4 0 0-3 0-5 0-3 0-7 0-10 2-2 2-5 5-7 7l0-14c5-3 7-5 12-5z m107 7l12 0 0-12-12 0z m-70-107l12 0 0-12-12 0z m2 59l12 0 0-13-12 0z m-176 48l13 0 0-12-13 0z m44 22l13 0 0-12-13 0z m59 91l12 0 0-13-12 0z m-100 85l12 0 0-12-12 0z m258-288l13 0 0-12-13 0z"/>
<glyph glyph-name="no-investment" unicode="&#119;" d="M412 483l12 0 0-47-12 0z m44-78l46 0 0-12-46 0z m-102 50l8 8 33-32-9-9z m87-87l9 8 33-33-9-8z m0 63l33 33 9-9-33-33z m-239-158c-2 0-5-2-5-5l0-75c0-3 3-5 5-5l181 0c2 0 5 2 5 5l0 75c0 3-3 5-5 5-3 0-5-2-5-5l0-71-85 0 0 79c0 2-3 4-5 4l-49 0c-3 0-5-2-5-4l0-79-24 0 0 71c-3 3-5 5-8 5z m42-2l36 0 0-30-4 0c-3 0-5-2-5-5 0-2 2-4 5-4l4 0 0-30-36 0z m-56 7c0-2 2-2 0 0 5 0 5 0 7 2l98 98 97-98c3-2 5-2 7-2 3 0 5 2 5 5l0 90c0 2-2 5-5 5l-61 0c-2 0-4-3-4-5 0-2 2-5 4-5l54 0 0-71-93 93c-2 3-7 3-9 0l-91-93 0 71 30 0c2 0 5 3 5 5l0 5 12 0 0-5c0-2 2-5 5-5 2 0 5 3 5 5l0 12c0 3-3 5-5 5l-25 0c0 0-5-2-5-5l0-5-29 0c-2 0-5-2-5-5l0-90c0-5 0-7 3-7z m161-56c2 0 5 2 5 5l0 49c0 2-3 4-5 4l-37 0c-2 0-5-2-5-4l0-49c0-3 3-5 5-5z m-32 49l24 0 0-37-24 0z m-246-203c0-5-5-9-10-9-5 0-10 4-10 9 0 6 5 10 10 10 5 0 10-4 10-10z m46 8c22 0 34-5 34-5 3-3 56-32 93-32 44 0 63 12 63 12l81 51c5 3 9 8 12 15 2 7 0 12-3 20-7 12-22 14-31 9l-71-34c-10-5-22-5-46-5-25 0-59 5-59 5-2 0-7-2-7-5 0-2 2-7 5-7 2 0 36-7 61-7 24 0 36 0 51 7l71 34c2 3 4 3 9 0 3 0 5-2 8-5 2 0 2-5 2-7 0-3-2-5-5-7l-83-52c0 0-17-12-56-12-34 0-88 29-88 29 0 0-14 8-39 8-2 0-4-3-4-5-3-3 0-7 2-7z m0 97c-2 0-5-2-5-5 0-2 3-5 5-5l49 0c7 0 19-9 29-17 12-9 27-19 37-19l36 0c10 0 15-5 15-5 0 0 2-3 5-3 2 0 2 0 5 3 2 2 2 7 0 10 0 0-8 7-22 7l-39 0c-8 0-20 10-30 17-12 10-26 20-36 20l-49 0z m-17 7c0 10-7 17-17 17l-37 0c-2 0-5-2-5-4 0-3 3-5 5-5l37 0c2 0 5-3 5-5l0-134c0-3-3-5-5-5l-37 0c-2 0-5-3-5-5 0-2 3-5 5-5l37 0c10 0 17 7 17 17z m-12 76c0 0-3-2-3-5 0-2 0-2 3-5 0 0 2-2 5-2 2 0 2 0 5 2 0 0 2 3 2 5 0 3 0 3-2 5-3 2-8 2-10 0z m75-32c3 0 8 3 8 8 2 4 2 9 0 12l-37 66-7 12-15 24-5 10-5 5c0 2-2 5-2 5-2 2-5 2-7 2-3 0-5 0-8-2-2 0-5-3-5-5l-24-42-5-9-12-17-15-25-4-7-8-17c-2-5-2-10 0-12 0-3 3-3 3-3 2-2 5-2 7-2l139 0c0-3 2-3 2-3z m-141 12l17 32 24 39 8 12 17 27 2 8 8-5 2-5 15-25 7-12 41-71c0 0 0 0 0-2l-141 2c0-2 0 0 0 0z m71 93c-3 0-5-2-5-5l0-46c0-2 2-5 5-5 2-2 5 0 5 3l0 46c0 5-3 7-5 7z"/>
<glyph glyph-name="no-homeowner" unicode="&#120;" d="M161 163c-3-2-5-5-10-5-2 0-7 3-10 5-2 3-4 3-7 0-2-2-2-5 0-7 3-5 10-10 17-10 7 0 15 3 20 10 2 2 2 7 0 7-3 3-8 3-10 0z m-37 39c-2 0-5-2-5-5l0-7c0-2 3-5 5-5 3 0 5 3 5 5l0 5c0 5-2 7-5 7z m56 0c-2 0-4-2-4-5l0-7c0-2 2-5 4-5 3 0 5 3 5 5l0 5c0 5-2 7-5 7z m125-46c-3-2-5-5-10-5-2 0-7 3-10 5-2 2-5 2-7 0-2-2-2-5 0-7 5-5 12-10 19-10 8 0 15 2 20 10 2 2 2 7 0 7-7 2-10 2-12 0z m-39 39c-3 0-5-2-5-5l0-7c0-3 2-5 5-5 2 0 5 2 5 5l0 7c2 3 0 5-5 5z m58 0c-2 0-5-2-5-5l0-7c0-3 3-5 5-5 3 0 5 2 5 5l0 7c0 3-2 5-5 5z m-304 112c-3 0-3-2-3-5l0-34c0-2 3-5 3-5 2 0 4 0 7 0l12 8 0-188c0-5 2-7 5-10 2-2 5-2 7-2 3 0 3 0 5 0l51 14c10 5 15 13 15 20l0 12c10-5 19-7 29-7 10 0 20 2 29 7l0-2-9-17-13-22-4-8-10-17c-3-5-3-10 0-12 0 0 2-2 2-2 3-3 5-3 8-3l131 0c0 0 3 0 3 0 2 0 7 3 7 5 2 5 2 10 0 12l-27 47c0 2 3 4 3 7 7-3 14-5 22-5 7 0 14 2 22 5 0-10 7-17 14-20l59-17c0 0 2 0 2 0 3 0 5 0 7 3 3 2 5 7 5 9l0 191 12-8c0 0 3 0 3 0 0 0 2 0 2 0 3 0 3 3 3 5l0 34c0 3 0 5-3 5l-192 144c-3 2-5 2-8 0l-82-58 0 26c2 0 4 3 4 5 0 3-2 5-4 5l-64 0c-2 0-5-2-5-5 0-2 3-5 5-5l0-70z m131-185c-32 0-58 27-58 58 0 3-3 5-5 5-5 0-8 5-8 8 0 4 5 7 8 7l10 0c4 0 9 2 12 10l5 12c14 0 58 2 85 14 2 3 5 5 2 8-2 2-5 5-7 2-27-14-83-14-83-14-2 0-5-3-5-5l-9-10-10 0 0 29c0 25 19 44 44 44l56 0c7 0 14-5 14-12 0-2 3-2 3-5 7-5 12-12 12-19l0-3c-5-10-7-22-7-34 0-17 0-34-3-51-5-25-29-44-56-44z m137-76c2 0 2 0 0 0 0-2 0-2 0 0l-134-2c0 0 0 0 0 2l17 30 12 22 10 17 0 2 7 12 5 8 12 19 2 2 3-7 2-5 10-19 2-3 8-12 7-14 0-3 5-10 0-2z m7 69c-15 0-27 4-37 12-9 7-17 19-19 31 0 5-3 10-3 13 0 2-2 5-4 5-5 0-8 4-8 7 0 5 5 7 8 7 19 0 31 17 36 27 15-10 29-12 44-15 27-5 42-9 42-34 0-5 0-10-3-12-2-12-10-24-19-32-10-5-22-9-37-9z m41-17c-2 0-4 4-4 7l0 7c2 3 7 5 9 7 13 10 22 25 25 39 0 5 2 10 2 15 0 34-24 42-51 46-15 3-32 8-46 17-3 0-3 3-5 0-3 0-3-2-5-2 0 0-3-7-10-12-5-5-12-12-22-12-2 0-5 0-7-3 0 3 0 8 0 10 0 39 32 73 73 73 41 0 73-32 73-73 0-44 5-93 7-105-4-2-14-10-34-14z m-251 321l39 0 0-36-39-27z m139 20l195-139 0-22-34 24c-2 3-7 3-7-2-3-3-3-7 2-7l20-15 0-195-32 10c17 7 22 14 25 14 0 3 2 3 2 5 0 0-7 59-7 107 0 47-39 86-86 86-29 0-53-15-68-34-10 2-15 7-19 9-3 13-15 22-27 22l-59 0c-31 0-56-24-56-56l0-34c-5-5-7-10-7-15 0-9 7-17 14-19 3-22 13-39 30-51l0-20c0-5-3-7-5-7l-51-15 0 195 173 125 131-95c3-3 8-3 8 2 0 0 0 5-3 5l-136 97c-3 3-5 3-8 0l-190-136 0 22z m186 39l12 0 0-44-12 0z m41-76l44 0 0-12-44 0z m-98 48l8 9 31-32-8-8z m84-82l9 9 31-31-9-9z m-1 61l31 31 8-9-31-31z m-219-363c0 0-2-3-2-5 0-2 0-2 2-5 0 0 2-2 5-2 2 0 2 0 5 2 0 0 2 3 2 5 0 2 0 2-2 5-3 2-8 2-10 0z m5 68c-3 0-5 0-5-2 0 0 0-3 0-3l0-46c0-3 2-5 5-5 2 0 5 2 5 5l0 49c0 0-3 2-5 2z"/>
<glyph glyph-name="no-earning" unicode="&#121;" d="M405 475l12 0 0-48-12 0z m48-82l49 0 0-13-49 0z m-110 53l8 9 35-35-9-8z m92-92l9 9 35-35-9-9z m2 67l34 34 9-9-34-34z m-298-375c-2 0-5-2-5-5 0-2 3-4 5-4l144 0c2 0 5 2 5 4 0 3-3 5-5 5l-25 0-4 49 139 0c9 0 19 10 19 20l0 258c0 10-10 20-19 20l-149 0 5-10 144 0c4 0 9-5 9-10l0-261c0-5-5-10-9-10l-361 0c-5 0-10 5-10 10l0 261c0 5 5 10 10 10l144 0 4 10-148 0c-10 0-20-10-20-20l0-261c0-10 10-19 20-19l139 0-5-49-27 0z m41 47l64 0 5-49-76 0z m25 300l12 0 0-10-12 0z m-47-39l5 9-117 0c-2 0-5-2-5-5l0-224c0-2 3-5 5-5l22 0c3 0 5 3 5 5 0 3-2 5-5 5l-17 0 0 215z m47 7c0-3 2-7 7-7 3 0 7 2 7 7l0 2-14 0z m122-7c2 0 5 2 5 4 0 3-3 5-5 5l-69 0 5-9z m-237-220c0-2 3-5 5-5l283 0c2 0 5 3 5 5l0 224c0 3-3 5-5 5l-22 0c-2 0-5-2-5-5 0-2 3-4 5-4l17 0 0-215-278 0c-2 0-5-2-5-5z m100 132c0 10-10 19-19 19-10 0-20-9-20-19 0-3 0-5 3-8l-56-56c-3 3-5 3-10 3-10 0-20-10-20-20 0-9 10-19 20-19 10 0 19 10 19 19 0 3 0 5-2 8l53 53c3-2 5-2 10-2 5 0 10 2 15 5l49-27c0 0 0-3 0-3 0-9 9-19 19-19 10 0 20 10 20 19 0 3 0 8-3 10l56 59c3 0 5-3 8-3 9 0 19 10 19 20 0 10-10 19-19 19-10 0-20-9-20-19 0-3 0-8 3-10l-57-59c-2 0-4 3-7 3-5 0-10-3-15-5l-48 27c2 2 2 2 2 5z m-102-90c-5 0-10 4-10 9 0 5 5 10 10 10 5 0 10-5 10-10 0-5-5-9-10-9z m83 80c-5 0-10 5-10 10 0 5 5 10 10 10 5 0 9-5 9-10 0-8-4-10-9-10z m163 61c5 0 10-5 10-10 0-5-5-10-10-10-5 0-10 5-10 10 0 8 5 10 10 10z m-80-85c4 0 9-5 9-10 0-5-5-10-9-10-5 0-10 5-10 10 0 5 2 10 10 10z m85-69l0 103c0 2-3 5-5 5-2 0-5-3-5-5l0-103c0-2 3-5 5-5 2 0 5 3 5 5z m-163 0l0 59c0 2-3 5-5 5-3 0-5-3-5-5l0-59c0-2 2-5 5-5 2 0 5 3 5 5z m82 0l0 15c0 2-2 5-4 5-3 0-5-3-5-5l0-15c0-2 2-5 5-5 2 0 4 3 4 5z"/>
<glyph glyph-name="investors" unicode="&#122;" d="M232 256l14 0c5 0 10 2 12 5 3 2 5 7 5 12l-2 24c0 0 0 3 0 3 0 0 0 0 2 0l27 0c5 0 7 2 7 7 0 5-2 8-7 8l-27 0c-5 0-9-3-14-8-5-5-8-5-5-10l2-24-14 0c-5 0-8-2-8-7 0-5 3-10 8-10z m-59 46l34 0c5 0 8 3 8 8 0 5-3 7-8 7l-34 0c-5 0-7-2-7-7 0-5 2-8 7-8z m34-73c0-5 3-7 8-7l31 0c5 0 8 2 8 7 0 5-3 7-8 7l-31 0c-5 3-8-2-8-7z m32-14l-15 0c-5 0-7-3-7-8 0-5 2-7 7-7l12 0c5 0 8 2 8 7 0 5-3 8-5 8z m241-115c0-5 3-7 8-7 4 0 7 2 7 7l0 63c0 5-3 8-7 8l-61 0 0 7c0 12-10 24-25 24l-31 0c-13 0-25-9-25-24l0-7c-14 7-27 12-34 14-2 8-5 12-7 20l7 14c3 5 5 10 7 13 13 14 17 29 20 48 15 5 27 17 27 35l0 24c0 12-10 22-22 22l-3 0 0 27c0 26-9 51-24 70-7 10-20 13-29 10-5 12-15 22-27 24-17 5-37 5-56 0-8 0-10-2-8-7 3-5 5-7 10-5 3 0 8 3 10 3 12 2 24 2 37-3 9-2 14-9 17-17 0-2 0-2 0-5 0-2 2-5 5-7 2-2 4-2 7 0 7 5 14 2 19-2 15-17 22-39 22-61l0-25c-12 0-24 8-36 17-10 10-15 22-15 22-2 3-5 5-7 5-3 0-5-2-8-5 0 0-2-5-7-12-10-10-19-17-34-19-10-3-17-3-24-5-8 0-15 0-22-5-8-3-13-7-20-15-5 5-12 15-14 27l0 15c0 34 19 65 48 83 5 2 5 7 3 9-3 5-8 5-10 5-37-19-56-58-56-97l0-27-7 0c-13 0-22-10-22-22l0-24c0-18 12-32 26-35 0-17 8-34 20-48 5-3 7-8 10-13l7-14c-5-5-7-10-10-17-7-3-19-10-36-17-3 0-3 0-5 0-3 0-5 0-7 0-3 0-5 0-8 0-2 0-5 0-7 0-3 0-5 0-7-3-3 0-5-2-8-2-9-3-17-10-24-15-3-2-5-2-5-5-2-2-2-2-5-5-10-12-14-29-14-46 0-7 0-12 2-19 0-3 0-5-2-10-3-22-3-42-3-44 0-5 3-7 7-7l464 0c4 0 7 2 7 7l0 39c0 5-3 7-7 7-5 0-8-2-8-7l0-32-183 0 0 98 42-17 24-12 0-20c0-5 3-7 8-7l39 0c4 0 7 2 7 7l0 20 63 29z m-139 246l5 0c3 0 5-2 5-5l0-24c0-7-5-15-12-17l0 46z m-219-49c-7 3-12 10-12 18l0 24c0 2 2 5 5 5l7 0z m29-53c-10 12-14 24-14 39l0 53c4-4 9-9 12-9 0 0 2 0 2-3 0 0 3 0 3 0 0 0 0 0 2 0 2 0 5 3 5 3 10 22 17 22 34 24 7 0 15 3 27 5 22 5 36 17 44 27 2-5 7-10 12-15 15-14 32-22 49-22l0-63c0-15-5-29-15-39-5-5-7-10-10-15l-9-17c-13-22-35-36-59-36-5 0-10 0-17 2-20 5-34 17-44 34l-10 17c-2 3-7 10-12 15z m93-95l-3-20-19 0-3 20c5 2 10 5 13 7 2-2 7-2 12-7z m-39 12c-10-7-22-20-34-39 0 2-3 5-5 10 0 2-3 2-3 5-5 14-5 34 3 51 10-12 24-22 39-27z m-61 7c0-5 0-7 0-12-3 2-3 2-5 2 0 0-2 0-2 3 0 0-3 0-3 2 3 3 7 3 10 5z m-110-141c0 5 0 12 0 19 3-2 5-5 7-7 3-2 5-5 8-7 2 0 2-3 5-3l-20 0z m95 10c-10-5-19-10-31-10-37 0-64 29-64 63 0 37 29 64 64 64 12 0 21-3 31-10 20-10 32-32 32-56 2-20-12-39-32-51z m105-8c-2 0-2 0-2 0l-15 0 0 15c0 5-2 7-7 7-5 0-8-2-10-7l0-17-3 0c0 0-2 0-2 0l-49 0c3 2 5 5 8 5 2 0 4 5 7 7 5 5 7 10 10 15 2 5 5 9 7 17 0 2 0 2 2 5 0 4 3 9 3 17 0 2 0 2 0 5 7 17 14 29 27 39l-3-15-2-51c0-5 2-8 7-10 5 0 7 2 7 7l3 44 19 0 5-85-12 0z m46 0l-19 0-5 93 2 17c10-7 18-20 22-29z m10 144c-5 0-7-2-7-7l0-27c-7 10-17 17-25 22 18 5 30 15 42 29 2-5 2-12 5-17z m110-80l0-8-25 0 0 15 25 0z m14 19c0 3-2 3-7 3l-39 0c-2 0-5-3-7-3l-25 12-41 17 0 15 183 0 0-15z m-316 5l17 0c4 0 7 2 7 7 0 5-3 8-7 8l-10 0 0 9c0 5-3 8-7 8-5 0-8-3-8-8l0-9c-10-3-14-13-14-22 0-12 9-25 24-25 5 0 7-5 7-9 0-5-5-10-7-10l-17 0c-5 0-7-3-7-7 0-5 2-8 7-8l7 0 0-7c0-5 3-7 8-7 4 0 7 2 7 7l0 10c10 5 17 12 17 24 0 12-10 24-22 24-5 0-7 3-7 8-3 2 0 7 5 7z"/>
<glyph glyph-name="repayment-terms" unicode="&#65;" d="M341 158c8 0 15-7 15-14 0-5 2-7 7-7 5 0 8 2 8 7 0 14-13 29-30 29-5 0-7-2-7-7 0-5 2-8 7-8z m64 322l-298 0c-9 0-19-9-19-19l0-381c0-12 10-21 22-21l153 0c0 0 0-3 0-3 0-2 3-2 5-5l17-2 17-17c3-3 3-3 5-3 3 0 5 3 5 3l15 24 24 0 15-24c0-3 2-3 5-3 2 0 4 0 4 3l18 17 17 2c2 0 4 3 4 5 0 3 0 5 0 7 5 5 8 10 8 17l0 381c2 10-8 19-17 19z m-98-431l-12 12c0 0-2 2-5 2l-10 3 22 36c8-7 17-12 27-14z m-10 95c0 24 20 41 42 41 22 0 41-19 41-41 0-25-19-42-41-42-22 0-42 17-42 42z m39-71l5 7 5-7z m52-10c-3 0-3 0-5-2l-10-12-22 39c10 2 20 7 27 14l22-36z m22 17c0-2 0-2-3-4l-22 36c5 10 10 20 10 29 0 32-24 56-56 56-32 0-56-24-56-56 0-12 2-22 10-29l-25-39-161 0c-5 0-7 3-7 7l0 381c0 5 2 7 7 7l295 0c5 0 8-2 8-7z m-98 295c5 0 7 3 7 8 0 5-2 7-7 7l-112 0c-5 0-7-2-7-7 0-5 2-8 7-8z m34-21l-180 0c-5 0-8-3-8-8 0-2 3-5 8-5l183 0c5 0 7 3 7 8-2 2-5 5-10 5z m-161-69l8 0c4 0 7 3 7 8 0 4-3 7-7 7l-8 0c-5 0-7-3-7-7 0-5 5-8 7-8z m0-36l8 0c4 0 7 2 7 7 0 5-3 7-7 7l-8 0c-5 0-7-2-7-7 0-5 5-7 7-7z m0-34l8 0c4 0 7 2 7 7 0 5-3 7-7 7l-8 0c-5 0-7-2-7-7 0-5 5-7 7-7z m142 82l-105 0c-5 0-7-2-7-7 0-5 2-7 7-7l105 0c5 0 7 2 7 7 0 5-5 7-7 7z m0-34l-105 0c-5 0-7-2-7-7 0-5 2-7 7-7l105 0c5 0 7 2 7 7 0 5-5 7-7 7z m0-36l-105 0c-5 0-7-3-7-8 0-4 2-7 7-7l105 0c5 0 7 3 7 7 0 5-5 8-7 8z m-169-76c0-5 3-7 8-7l63 0c5 0 7 2 7 7 0 5-2 7-7 7l-63 0c-5 0-8-4-8-7z m232 273c-12 0-22 10-22 22 0 5-2 7-7 7l-210 0c-5 0-7-4-7-7 0-12-10-22-22-22-5 0-7-2-7-7l0-295c0-5 2-7 7-7 12 0 22-10 22-22 0-5 2-8 7-8l105 0c5 0 7 3 7 8 0 5-2 7-7 7l-100 0c-2 15-15 24-27 27l0 285c15 2 25 12 27 27l198 0c2-15 14-25 26-27l0-212c0-5 3-7 8-7 5 0 7 2 7 7l0 217c2 5-2 7-5 7z"/>
<glyph glyph-name="request-information" unicode="&#66;" d="M466 327c-8 0-15-3-22-10l-42-41 0 97c5-10 8-22 8-32l14 0c0 27 27 71 61 71l0 15c-36 0-61 24-61 61l-14 0c0-13-3-22-8-30l0 15c0 12-9 24-24 24l-341 0c-13 0-25-9-25-24l0-434c0-12 10-24 25-24l341 0c12 0 24 9 24 24l0 151 86 86c4 4 9 12 9 21-2 15-14 30-31 30z m-49 126c7-17 19-29 36-36-17-10-29-24-36-42-7 20-22 35-37 42 17 7 30 19 37 36z m-29-414c0-5-3-7-8-7l-341 0c-5 0-7 2-7 7l0 434c0 5 2 7 7 7l341 0c5 0 8-2 8-7l0-34c-10-7-25-12-39-12l0-15c14 0 29-7 39-17l0-134-108-107 0 41-56 0 0-54 44 0-2-2-32-73 73 32 81 80z m-100 66l-27-12 12 26z m-25 73l0-24-24 0 0 24z m39-66l-19 20 136 136 20-19z m173 173l-26-27-20 20 27 27c2 2 7 5 10 5 7 0 14-8 14-15 0-2-2-7-5-10z m-358 64c24 0 46 22 46 46 0 24-22 46-46 46-24 0-46-22-46-46 0-24 19-46 46-46z m0 78c17 0 32-15 32-32 0-17-15-32-32-32-17 0-32 15-32 32 0 17 15 32 32 32z m-39-93l61 0 0-15-61 0z m61-63l-54 0 0-54 54 0z m-15-39l-24 0 0 24 24 0z m-39-93l54 0 0 56-54 0z m17 39l25 0 0-24-25 0z m178 93l-56 0 0-54 54 0 0 54z m-17-39l-24 0 0 24 24 0z m-46 187l107 0 0-14-107 0z m0-46l139 0 0-15-139 0z m0-46l139 0 0-15-139 0z m-61-64l39 0 0-14-39 0z m0-31l39 0 0-15-39 0z m139 31l39 0 0-14-39 0z m0-31l39 0 0-15-39 0z m-139-61l39 0 0-15-39 0z m-71-61l139 0 0-15-139 0z m0-32l139 0 0-15-139 0z m71 256l15 0 0-15-15 0z m200-271l15 0 0-14-15 0z m-29 0l14 0 0-14-14 0z m-281 0l15 0 0-14-15 0z"/>
<glyph glyph-name="summary" unicode="&#67;" d="M49 10l414 0c5 0 8 2 8 7l0 61c0 5-5 7-8 7-5 0-7-2-7-7l0-54-400 0 0 464 315 0 0-78c0-5 2-8 7-8l78 0 0-280c0-5 2-7 7-7 5 0 8 4 8 7l0 285c0 3 0 5-3 5l-88 88c-2 2-5 2-5 2l-336 0 0-485c0-5 5-7 10-7z m336 465l59-58-59 0z m-231-319l-54 0c-5 0-7-2-7-7 0-5 2-8 7-8l54 0c4 0 7 3 7 8 0 5-3 7-7 7z m-54 278l54 0c0 0 0 0 2 0 5 0 7 5 7 7 0 5-2 8-7 8l-56 0c-5 0-7-3-7-8 0-5 2-7 7-7z m0-49l124 0c5 0 8 3 8 8 0 4-3 7-8 7l-124 0c-5 0-7-3-7-7 0-5 2-8 7-8z m0-41l124 0c5 0 8 2 8 7 0 5-3 7-8 7l-124 0c-5 0-7-2-7-7 0-5 2-7 7-7z m0-42l124 0c5 0 8 3 8 8 0 5-3 7-8 7l-124 0c-5 0-7-2-7-7 0-5 2-8 7-8z m105-34c0 5-3 8-8 8l-97 0c-5 0-7-3-7-8 0-5 2-7 7-7l95 0c5 0 10 2 10 7z m-51-156l-54 0c-5 0-7-2-7-7 0-5 2-7 7-7l54 0c4 0 7 2 7 7 0 5-3 7-7 7z m163-78c29 0 56 10 78 29 27 22 44 56 44 93 0 66-54 122-122 122-20 0-37-5-51-12-12-8-25-15-34-25-3-2-3-7 0-12 2-2 7-2 12 0 0 0 2 3 2 3 20 19 47 29 73 29 59 0 105-46 105-105 0-29-12-54-29-73-20-20-46-32-76-32-58 0-104 47-104 105 0 17 4 34 12 49 2 5 0 7-3 10-5 2-9 0-12-3-12-17-17-36-17-56 0-66 56-122 122-122z m-34 68c-3 0-5-2-7-4 0-3-3-3-3-5 0-5 3-8 7-8l25 0 0-7c0-5 2-7 7-7 5 0 7 2 7 7 0 0 0 0 0 2l0 10 13 0c14 0 24 10 24 25l0 26c0 15-10 25-24 25l-13 0 0 46 30 0c5 0 7 3 7 7 0 5-2 8-7 8l-30 0 0 9c0 5-2 8-7 8-5 0-7-3-7-8l0-9-8 0c-14 0-24-10-24-25l0-29c0-15 10-24 24-24l8 0 0-44-22 0z m39 44l12 0c5 0 7-2 7-7l0-27c0-5-2-7-7-7l-12 0z m-25 17c-4 0-7 3-7 8l0 29c0 5 3 7 7 7l8 0 0-44z m-2 278c0 0-2 3-5 3l-29 5-15 17c-2 2-7 2-12 0-2-3-5-8 0-13 0 0 17-19 17-19l5-27c0-2 0-2 2-5l130-129c5-5 12-7 17-7 7 0 12 2 17 7l2 3c10 9 10 24 0 34l12 12c3 2 3 10 0 12l-46 44c-2 2-7 2-12 0-3-3-3-7 0-12l39-37-7-7z m-15-34l-9 7-3 18 17-3 8-10 70-70-12-13z m132-119c-5-5-10-5-12-3l-39 39 12 12 39-39c2 0 2-4 0-9z"/>
<glyph glyph-name="view" unicode="&#68;" d="M346 368c-68 29-134 27-197-10-34-17-64-41-90-68-13-10-22-22-32-32-3-2-3-2 0-4 29-30 58-61 92-86 35-24 74-41 115-46 0 0 2 0 2 0 13 0 25 0 37 0 5 2 10 2 15 2 41 8 78 25 112 49 32 22 61 51 88 78 2 3 2 3 0 5-42 46-86 88-142 112z m-90-207c-51 0-93 44-93 95 0 54 42 95 93 95 51 0 93-44 93-95 0-54-42-95-93-95z m10 105c-12 12-12 27-3 44-27 2-48-10-56-34-10-22-2-49 15-64 17-15 41-17 63-5 20 12 32 34 27 54-19-7-34-7-46 5z"/>
<glyph glyph-name="we-never-foreclose" unicode="&#69;" d="M388 88l-30 29c15 24 22 54 22 80l0 3 15 0 0 15-15 0 0 73c0 5-2 7-7 7l-56 0 0 46c0 5-2 8-7 8l-25 0 0 24c3 63-51 115-114 115-64 0-117-52-117-115l0-24-25 0c-2 0-5-3-5-8l0-234c0-22 17-39 39-39l127 0c17-17 39-31 64-46 0 0 2 0 2 0 2 0 2 0 2 0 39 22 71 49 91 80l26-26-26 0 0-15 46 0c5 0 7 2 7 7l0 47-14 0z m-317 285c0 56 46 100 100 100 53 0 100-46 100-100l0-24-25 0 0 24c3 41-31 76-75 76-44 0-78-35-78-76l0-24-25 0 0 24z m161 0l0-24-122 0 0 24c0 34 27 61 61 61 34 0 61-27 61-61z m-193-93l46 0 0-24-46 0z m0-39l46 0 0-24-46 0z m0-39l46 0 0-24-46 0z m0-39l46 0 0-24-46 0z m24-78c-12 0-24 10-24 25l0 14 54 0c5 0 7 3 7 8l0 156c0 5-2 7-7 7l-54 0 0 39 263 0 0-39-163 0c-5 0-7-2-7-7l0-88c0-42 14-81 44-112l-113 0z m193-46c-68 37-110 98-110 158l0 83 220 0 0-61-15 0 0 39c0 5-2 8-7 8l-173 0c-5 0-8-3-8-8l0-41c0-63 34-119 91-151 0 0 2 0 4 0 3 0 3 0 5 0 30 14 52 39 66 66l12-13c-22-34-48-58-85-80z m0 178c-2 0-5-2-7-5 0-2 0-7 2-7l64-64c-15-24-35-46-59-61-49 27-78 78-78 135l0 34 156 0 0-32z m78-15c-2-17-5-31-12-46l-46 46z m12-73l-14 15c7 19 14 39 14 58l20 0 0-2c0-24-8-49-20-71z m66 88l15 0 0-15-15 0z m29 0l15 0 0-15-15 0z m32 0l15 0 0-15-15 0z m-32 210l15 0 0-15-15 0z m32 0l15 0 0-15-15 0z m-73-61l-10 12-32-32c-2-2-2-7 0-10l32-31 10 12-17 17 90 0 0 15-90 0z m39-69l-10 10-32-31c-2-3-2-8 0-10l32-32 10 10-17 17 66 0 0 19-66 0z m-95 159l-32-32c-2-2-2-7 0-10l32-31 10 10-18 17 91 0 0 17-91 0 18 17z"/>
<glyph glyph-name="worth" unicode="&#70;" d="M161 119l0-95c0-4 2-7 7-7 5 0 8 3 8 7l0 95c0 5-3 8-8 8-5 2-7-3-7-8z m-112 98l0-63c0-5 2-8 7-8 5 0 7 3 7 8l0 63c0 5-2 7-7 7-5 0-7-5-7-7z m-25-168l113 0c4 0 7 2 7 7 0 5-3 7-7 7l-113 0c-4 0-7-2-7-7 0-5 3-7 7-7z m0-32l113 0c4 0 7 3 7 7 0 5-3 8-7 8l-113 0c-4 0-7-3-7-8 0-4 3-7 7-7z m152 200c0 5-3 7-8 7l-63 0c-5 0-7-5-7-7l0-63c0-5 2-8 7-8 5 0 7 3 7 8l0 7 49 0 0-7c0-5 2-8 7-8 5 0 8 3 8 8z m-15-41l-49 0 0 31 49 0z m-137-96l113 0c4 0 7 3 7 8 0 5-3 7-7 7l-113 0c-4 0-7-2-7-7 0-3 3-8 7-8z m0 32l113 0c4 0 7 3 7 7 0 5-3 8-7 8l-113 0c-4 0-7-3-7-8 0-2 3-7 7-7z m264 224c0 18-15 32-32 32-17 0-32-14-32-32 0-17 15-31 32-31 17 0 32 12 32 31z m-49 0c0 10 7 18 17 18 10 0 17-8 17-18 0-9-7-17-17-17-10 0-17 8-17 17z m-39-319l95 0c5 0 7 3 7 7 0 5-2 8-7 8l-95 0c-5 0-7-3-7-8 0-4 2-7 7-7z m0 32l66 0c5 0 7 2 7 7 0 5-2 7-7 7l-66 0c-5 0-7-2-7-7 0-5 2-7 7-7z m295 80c0 61-51 112-112 112-61 0-112-51-112-112 0-61 51-112 112-112 63 0 112 49 112 112z m-112-97c-54 0-95 44-95 95 0 53 44 95 95 95 53 0 95-44 95-95 2-51-42-95-95-95z m-359 400c-2 0-4 0-4-3-3-2-3-2-3-5l0-200c0-2 3-7 5-7 0 0 2 0 2 0 3 0 5 0 5 2l225 227 226-227c3-2 3-2 5-2 0 0 3 0 3 0 2 2 4 5 4 7l0 200c0 5-2 8-7 8l-151 0c-5 0-7-3-7-8 0-5 2-7 7-7l144 0 0-173-217 217c0 2-3 2-5 2-2 0-5 0-5-2l-219-217 0 170 87 0c5 0 8 3 8 8l0 34c2 5-3 7-8 7l-7 0 0 17 49 0 0-17-10 0c-2 0-7-2-7-7l0-32c0-5 5-10 7-10l25 0c4 0 7 3 7 8 0 5-3 7-7 7l-15 0 0 17 7 0c5 0 8 3 8 7l0 35c0 4-3 7-8 7l-63 0c-5 0-7-3-7-7l0-32c0-5 2-7 7-7l7 0 0-17z m359-264c10 0 17-7 17-17 0-5 2-7 7-7 5 0 7 2 7 7 0 15-9 27-24 32 0 5-2 7-7 7-5 0-8-2-8-7-14-3-24-17-24-32 0-17 15-32 32-32 10 0 17-7 17-17 0-9-7-17-17-17-10 0-17 8-17 17 0 5-3 8-8 8-4 0-7-3-7-8 0-14 10-26 24-31 0-5 3-8 8-8 5 0 7 3 7 8 15 2 24 17 24 31 0 17-14 32-31 32-10 0-17 7-17 17 2 10 9 17 17 17z m-183-88l51 0c5 0 7 3 7 8 0 5-2 7-7 7l-51 0c-5 0-7-2-7-7 0-3 2-8 7-8z m7 137l0-63c0-5 3-8 8-8 4 0 7 3 7 8l0 56 56 0c5 0 7 2 7 7 0 5-2 7-7 7l-61 0c-5 0-10-5-10-7z m-14-98c0-4 2-7 7-7l49 0c5 0 7 3 7 7 0 5-2 8-7 8l-49 0c-5 2-7-3-7-8z"/>
<glyph glyph-name="no-agents" unicode="&#71;" d="M385 495l12 0 0-49-12 0z m49-88l49 0 0-12-49 0z m-112 57l9 8 34-34-8-9z m95-95l9 9 34-35-8-9z m0 67l35 35 8-9-34-34z m-3-309c-2 2-7 2-9 0 0 0 0 0-3-3 0 0 0-2 0-2 0 0 0-3 0-3 0 0 0 0 0-2 3 0 3-2 5-2 3 0 3 0 5 2 0 0 0 0 0 2 0 0 0 3 0 3 5 2 5 2 2 5z m74-34c4 0 7 2 9 7 3 5 3 10 0 15l-29 48-12 22-7 12-3 5-7 8-15 24-2 5c0 2-3 5-5 5 0 0 0 0-3 0-2 0-4 2-4 2-3 0-3 0-5 0 0 0-3 0-3 0-2 0-5-2-5-5l-14-24-3-2c-2 0-5 2-9 2-8 19-27 34-49 34-7 0-17-2-25-5l0 17c0 27-14 49-34 64 0 0-7 12-7 12 0 0 2 2 2 2 10 10 15 25 18 37 0 5 0 7 0 12 0 3 0 5-3 7-2 5-7 8-10 10-5 7-12 12-19 17-22 8-44 3-59-17-7-10-22-17-22-17l-12-5 12-5c5-2 8-5 13-5 0-14 7-26 17-36l-10-12c-22-15-34-37-34-64l0-27c-10 10-22 15-37 15-22 0-41-15-49-34-31-10-51-24-51-41l0-30c0-12 10-22 29-31-7-13-9-25-9-39l0-59 370 0 0 59c0 4 0 9-2 17l80 0c5-3 8 0 8 0z m-164 146c22 0 42-20 42-42 0-21-20-41-42-41-22 0-41 20-41 41 0 22 17 42 41 42z m-61 76c15-13 25-30 25-49l0-27c0 0-3-3-3-3-5 0-9 0-14 3l0 27-13 0 0-25c-7 0-14 0-22 0l5 3 0 44z m-39 4l-7 10c2 0 5 0 7 0 3 0 5 0 8 0z m5-34l0-36-5-5-5 5 0 36c3 0 8 0 10 0z m-12 25l-5-10-17 22 5 7z m32 19l5-7-18-22-4 10z m-54 71c10 14 29 19 44 12 7-2 12-7 17-15l2-2 3 0c0 0 2 0 5-5 0-2 2-5 0-12-3 5-5 10-8 12l-2 3-5-3c0 0-10-5-22-7-17-3-34-3-49 2 5 5 10 10 15 15z m-7-27c31-7 53 2 63 7 3-5 5-12 7-19-7-12-19-20-34-20-19-2-34 13-36 32z m-27-110c0 20 10 39 24 49l22-24 0-44 5-5c-7 0-15 0-22 0l0 24-10 0 0-24c-7 0-12 0-19-3z m58-36c20 0 39 0 59-3-5-7-7-17-7-27 0-19 9-36 26-46-12-5-24-12-34-22-14 0-29-2-44-2-14 0-29 0-43 2-10 10-20 17-35 22 17 10 27 27 27 46 0 10-2 18-7 27 17 0 36 3 58 3z m-104 12c22 0 41-20 41-42 0-21-19-41-41-41-22 0-42 20-42 41 0 22 17 42 42 42z m-54-34c0-3 0-5 0-8 0-19 10-36 27-46-5 0-10-2-15-5-36 10-49 22-49 32 0 7 10 17 37 27z m-37-59l0 10c8-7 22-12 37-19-5-5-7-8-12-13-17 8-25 17-25 22z m159-117l-22 0 0 44-12 0 0-44-71 0 0 44-12 0 0-44-22 0 0 47c0 39 32 68 68 68 37 0 68-32 68-68l0-47z m58 47l0-47-46 0 0 47c0 4 0 7 0 12 7 0 17 0 24 0 8 0 17 0 25 0 0-5-3-10-3-12z m-22 22c-9 0-19 0-26 0-3 7-5 12-8 19 12 0 25 0 37 0 12 0 24 0 36 0-2-5-7-12-7-19-15 0-24 0-32 0z m174-69l-22 0 0 44-13 0 0-44-70 0 0 44-12 0 0-44-22 0 0 47c0 39 31 68 68 68 5 0 10 0 17-3l0-2-5-7-12-20c-3-5-3-10 0-14 0-3 2-3 2-5 3-3 5-3 10-3l56 0c3-5 3-10 3-17z m7 76l-64 0c0 0 0 0-2 0 0 0 0 0 0 2l20 32 2 2 5 8 19 34 8 12 0 2 2 3 5 10 0 2 10 15 5 7 4-7 0-3 3-5 7-12 8-14 7-13 44-78c0 0 0 0 0-2 0 0 0 0-3 0l-80 0z m14 97c0 3-2 3-4 3-3 0-3 0-5-3 0 0 0-2 0-2l0-54c0 0 0-2 0-2 0-3 2-5 5-5 2 0 4 2 4 2 0 0 0 3 0 3l0 56c3 0 3 0 0 2z m-48 95l12 0 0-12-12 0z m-17 64l12 0 0-12-12 0z m39 41l12 0 0-12-12 0z m-91-66l13 0 0-12-13 0z m10 86l12 0 0-12-12 0z m-248-125l12 0 0-12-12 0z m19 64l12 0 0-12-12 0z m-41 41l12 0 0-12-12 0z m90-66l12 0 0-12-12 0z m-8 86l13 0 0-12-13 0z"/>
</font>
</defs>
</svg>
